<?xml version="1.0" encoding="UTF-8"?>
<svg version="1.1" xmlns="http://www.w3.org/2000/svg" width="512" height="512">
<path d="M0 0 C1.57193619 -0.00101212 1.57193619 -0.00101212 3.17562866 -0.00204468 C19.45922614 0.01459139 35.34101948 0.58114 51.4375 3.25 C52.50581055 3.42160645 53.57412109 3.59321289 54.67480469 3.77001953 C97.29617088 10.78993545 140.03093548 25.62400799 171.4375 56.25 C172.23671875 56.97574219 173.0359375 57.70148438 173.859375 58.44921875 C186.95889458 70.66790856 196.94175817 89.30109801 198.4375 107.25 C199.59039868 166.80983435 182.43372175 222.41903849 145.4375 269.25 C144.95555176 269.86649414 144.47360352 270.48298828 143.97705078 271.11816406 C132.50048543 285.661106 118.88813233 295.87820843 102.4375 304.25 C101.83502441 304.56275879 101.23254883 304.87551758 100.61181641 305.19775391 C85.153953 313.14932973 68.77579802 317.98830451 51.8125 321.5625 C50.67087402 321.80492432 49.52924805 322.04734863 48.35302734 322.29711914 C31.74854474 325.61918912 15.21169633 326.63495973 -1.6875 326.5625 C-3.02346222 326.55976578 -3.02346222 326.55976578 -4.38641357 326.55697632 C-18.9477761 326.50704514 -33.19956631 325.81598218 -47.5625 323.25 C-48.51108887 323.08371094 -49.45967773 322.91742188 -50.43701172 322.74609375 C-97.36631279 314.22066984 -138.2797851 290.76071413 -173.5625 259.25 C-174.42875 258.48300781 -175.295 257.71601563 -176.1875 256.92578125 C-178.66165173 254.71728363 -181.11454693 252.48749557 -183.5625 250.25 C-184.10890137 249.7540332 -184.65530273 249.25806641 -185.21826172 248.74707031 C-187.00294229 247.12659408 -188.78320815 245.50138969 -190.5625 243.875 C-191.12718994 243.36259766 -191.69187988 242.85019531 -192.27368164 242.32226562 C-194.7271122 240.0689548 -196.7048329 238.03650065 -198.5625 235.25 C-199.10777344 235.91386719 -199.65304688 236.57773437 -200.21484375 237.26171875 C-207.45748642 245.74241999 -214.84867064 251.43503754 -226.27734375 252.50390625 C-236.78962381 252.92331511 -245.45968416 250.07563171 -253.5546875 243.30078125 C-258.96075065 237.77902414 -262.59644073 230.93388681 -263.5625 223.25 C-263.65660156 222.57324219 -263.75070312 221.89648438 -263.84765625 221.19921875 C-265.34586155 198.95663232 -251.16261767 172.89737888 -242.625 153.125 C-242.16464355 152.04589355 -241.70428711 150.96678711 -241.22998047 149.85498047 C-240.79443848 148.86900879 -240.35889648 147.88303711 -239.91015625 146.8671875 C-239.52867432 145.99690918 -239.14719238 145.12663086 -238.75415039 144.22998047 C-237.5625 142.25 -237.5625 142.25 -234.5625 141.25 C-214.63737056 172.32366308 -214.63737056 172.32366308 -207.3046875 186.19140625 C-206.76026001 187.21675476 -206.76026001 187.21675476 -206.20483398 188.26281738 C-205.32275693 189.92452267 -204.44244012 191.58716214 -203.5625 193.25 C-203.45760254 191.67424194 -203.45760254 191.67424194 -203.35058594 190.06665039 C-199.76795098 136.99875098 -193.06051291 80.75268674 -152.4375 42.1875 C-121.5080144 15.63080375 -73.88938559 5.38727491 -34.5625 1.25 C-33.32487915 1.10860596 -33.32487915 1.10860596 -32.06225586 0.96435547 C-21.40990099 -0.10518497 -10.69473462 0.00618502 0 0 Z " fill="#876C61" transform="translate(288.5625,92.75)"/>
<path d="M0 0 C0.33 0 0.66 0 1 0 C3.52408529 53.94063743 -21.79366824 108.55715471 -56 149 C-56.58652344 149.74507812 -57.17304688 150.49015625 -57.77734375 151.2578125 C-78.36881551 176.40013469 -113.91884218 188.84266079 -144.625 195.3125 C-146.33743896 195.67613647 -146.33743896 195.67613647 -148.08447266 196.04711914 C-164.68895526 199.36918912 -181.22580367 200.38495973 -198.125 200.3125 C-199.01564148 200.31067719 -199.90628296 200.30885437 -200.82391357 200.30697632 C-215.3852761 200.25704514 -229.63706631 199.56598218 -244 197 C-244.94858887 196.83371094 -245.89717773 196.66742188 -246.87451172 196.49609375 C-293.80381279 187.97066984 -334.7172851 164.51071413 -370 133 C-370.86625 132.23300781 -371.7325 131.46601563 -372.625 130.67578125 C-375.09914618 128.46728858 -377.55189472 126.23731676 -380 124 C-380.81162598 123.26402588 -380.81162598 123.26402588 -381.63964844 122.51318359 C-383.40903662 120.90835539 -385.17374324 119.29851352 -386.9375 117.6875 C-387.49381104 117.18347656 -388.05012207 116.67945313 -388.62329102 116.16015625 C-394.29107184 110.95751774 -394.29107184 110.95751774 -396 108 C-395.67 107.01 -395.34 106.02 -395 105 C-393.834758 104.99413376 -392.66951599 104.98826752 -391.46896362 104.98222351 C-313.08818779 104.65354017 -313.08818779 104.65354017 -234.79199219 101.35107422 C-229.65731055 101.03327309 -224.52178083 100.77188247 -219.3828125 100.53515625 C-152.36017748 97.34536553 -67.45680813 91.13702749 -19.45214844 38.69042969 C-9.70337035 27.3419866 -3.90582871 14.35312663 0 0 Z " fill="#996B3E" transform="translate(485,219)"/>
<path d="M0 0 C1.57193619 -0.00101212 1.57193619 -0.00101212 3.17562866 -0.00204468 C19.45922614 0.01459139 35.34101948 0.58114 51.4375 3.25 C52.50581055 3.42160645 53.57412109 3.59321289 54.67480469 3.77001953 C97.29617088 10.78993545 140.03093548 25.62400799 171.4375 56.25 C172.23671875 56.97574219 173.0359375 57.70148438 173.859375 58.44921875 C187.97287541 71.61370792 197.38732401 91.03528271 198.6328125 110.265625 C199.32920855 130.97180085 190.54753265 150.14037325 177 165.4375 C175.48781051 167.04981749 173.96718232 168.65426922 172.4375 170.25 C171.76332031 170.98734375 171.08914063 171.7246875 170.39453125 172.484375 C137.40748007 207.38999764 86.3193742 214.86659366 41.0625 221.4375 C39.59079346 221.65140381 39.59079346 221.65140381 38.08935547 221.86962891 C34.54248192 222.36188749 30.99126615 222.81114096 27.4375 223.25 C26.5576947 223.36102051 25.6778894 223.47204102 24.77142334 223.58642578 C5.74343653 225.95673206 -13.27269787 227.22940213 -32.40856934 228.25195312 C-35.44850058 228.4160889 -38.4880176 228.58725338 -41.52754402 228.75869942 C-45.27081425 228.96950494 -49.01430032 229.17635523 -52.7578125 229.3828125 C-54.07524445 229.45573517 -55.39267639 229.52865784 -56.75003052 229.60379028 C-77.74886333 230.7289896 -98.7254976 231.40343618 -119.75390625 231.56640625 C-122.04988404 231.58706056 -124.34585875 231.60805863 -126.64183044 231.62937927 C-132.59104879 231.68372742 -138.54029623 231.73350911 -144.48956299 231.78222656 C-150.59788502 231.8330925 -156.70616649 231.88843342 -162.81445312 231.94335938 C-174.73043385 232.04986809 -186.64645027 232.15153615 -198.5625 232.25 C-199.01665283 233.35770752 -199.47080566 234.46541504 -199.9387207 235.60668945 C-203.12693855 242.76016635 -209.69643237 247.24971564 -216.640625 250.55859375 C-225.54847538 253.76324724 -235.30865756 253.14451049 -243.9609375 249.56640625 C-253.00486361 244.99012532 -258.67328724 238.63354371 -262.37109375 229.18359375 C-262.95327431 227.19614976 -263.30425382 225.30405042 -263.5625 223.25 C-263.65660156 222.57324219 -263.75070312 221.89648438 -263.84765625 221.19921875 C-265.34586155 198.95663232 -251.16261767 172.89737888 -242.625 153.125 C-242.16464355 152.04589355 -241.70428711 150.96678711 -241.22998047 149.85498047 C-240.79443848 148.86900879 -240.35889648 147.88303711 -239.91015625 146.8671875 C-239.52867432 145.99690918 -239.14719238 145.12663086 -238.75415039 144.22998047 C-237.5625 142.25 -237.5625 142.25 -234.5625 141.25 C-214.63737056 172.32366308 -214.63737056 172.32366308 -207.3046875 186.19140625 C-206.76026001 187.21675476 -206.76026001 187.21675476 -206.20483398 188.26281738 C-205.32275693 189.92452267 -204.44244012 191.58716214 -203.5625 193.25 C-203.45760254 191.67424194 -203.45760254 191.67424194 -203.35058594 190.06665039 C-199.76795098 136.99875098 -193.06051291 80.75268674 -152.4375 42.1875 C-121.5080144 15.63080375 -73.88938559 5.38727491 -34.5625 1.25 C-33.32487915 1.10860596 -33.32487915 1.10860596 -32.06225586 0.96435547 C-21.40990099 -0.10518497 -10.69473462 0.00618502 0 0 Z M-44.4375 20.5625 C-45.28280273 20.69438721 -46.12810547 20.82627441 -46.99902344 20.9621582 C-77.00158391 25.81154016 -110.66610082 35.47499243 -133.5625 56.25 C-134.22507813 56.8171875 -134.88765625 57.384375 -135.5703125 57.96875 C-145.64657702 67.18649871 -151.9787465 80.00381335 -157.5625 92.25 C-158.38234375 94.03857422 -158.38234375 94.03857422 -159.21875 95.86328125 C-163.39325313 105.60733831 -165.77234092 115.57557481 -168.03149414 125.90356445 C-168.5118271 128.02608403 -169.0474177 130.12346558 -169.60546875 132.2265625 C-170.81104373 136.99330321 -171.47546482 141.81834105 -172.125 146.6875 C-172.25430908 147.65397461 -172.38361816 148.62044922 -172.5168457 149.61621094 C-174.39425635 164.16944662 -174.71680214 178.59129654 -174.5625 193.25 C-173.20318359 193.68699219 -173.20318359 193.68699219 -171.81640625 194.1328125 C-154.19710518 200.06184715 -154.19710518 200.06184715 -149.86083984 206.95507812 C-146.89057182 211.42193553 -144.29105354 214.60421198 -139.00146484 215.85614014 C-132.49730922 216.6113899 -125.99197182 216.46694104 -119.45800781 216.24462891 C-115.9395542 216.1250698 -112.42650235 216.08073875 -108.90625 216.05078125 C-106.65357214 216.01476323 -104.40095675 215.97454143 -102.1484375 215.9296875 C-100.58408463 215.90115189 -100.58408463 215.90115189 -98.98812866 215.87203979 C-92.83429868 215.65234751 -88.20220309 214.72583727 -82.5625 212.25 C-81.62067871 211.89228516 -80.67885742 211.53457031 -79.70849609 211.16601562 C-43.69067378 197.29804755 -11.39416739 179.24173024 16.4375 152.25 C16.97713379 151.73614746 17.51676758 151.22229492 18.07275391 150.69287109 C29.98182239 139.34242207 39.58567092 126.91088351 48.5390625 113.13671875 C50.4375 110.25 50.4375 110.25 51.4375 109.25 C57.72138747 108.66815857 57.72138747 108.66815857 60.4375 110.875 C61.78786307 114.08211228 61.23293636 115.88596706 60.4375 119.25 C40.85141808 157.6060771 1.81696772 186.57500257 -35.25292969 206.27978516 C-36.1452832 206.75464355 -37.03763672 207.22950195 -37.95703125 207.71875 C-38.74956299 208.13576172 -39.54209473 208.55277344 -40.35864258 208.98242188 C-42.57228152 210.25562597 -44.55424858 211.67615859 -46.5625 213.25 C-34.81757205 213.6202928 -23.1349197 212.55818444 -11.4375 211.625 C-10.34201843 211.53796814 -9.24653687 211.45093628 -8.11785889 211.36126709 C80.60160401 204.54629298 80.60160401 204.54629298 152.49609375 156.7421875 C165.23786683 140.3855452 169.22872741 124.68106683 167.03125 104.5234375 C164.60449732 90.37802384 156.96778696 78.72111968 147.4375 68.25 C146.88707031 67.62996094 146.33664062 67.00992188 145.76953125 66.37109375 C136.05065607 56.02829079 123.93158773 48.71317382 111.4375 42.25 C110.78330078 41.90727051 110.12910156 41.56454102 109.45507812 41.21142578 C89.61235167 30.94099576 68.34180461 25.17076353 46.4375 21.25 C45.0134082 20.98268066 45.0134082 20.98268066 43.56054688 20.70996094 C30.13268851 18.29721206 16.71484169 18.08649392 3.11547852 18.11962891 C0.50726492 18.12498508 -2.10077599 18.1196517 -4.70898438 18.11328125 C-18.02736832 18.10689743 -31.25363976 18.49468922 -44.4375 20.5625 Z " fill="#C89565" transform="translate(288.5625,92.75)"/>
<path d="M0 0 C2.61032903 0.00537155 5.22048661 0.00001242 7.83081055 -0.00634766 C22.2996729 -0.01465315 36.28815153 0.80976379 50.54760742 3.44287109 C51.78019287 3.66869873 53.01277832 3.89452637 54.28271484 4.12719727 C62.56960994 5.6812991 70.55004697 7.43544614 78.54760742 10.13037109 C79.36438965 10.39156738 80.18117188 10.65276367 81.02270508 10.921875 C113.5274256 21.32407483 145.78661485 37.8390526 162.85620117 68.77099609 C169.39301233 81.75403903 171.95731549 96.87578083 168.87182617 111.28662109 C168.04760742 113.75537109 168.04760742 113.75537109 166.54760742 117.13037109 C165.88760742 117.13037109 165.22760742 117.13037109 164.54760742 117.13037109 C163.28091104 115.67931984 162.08421505 114.16684015 160.92260742 112.63037109 C134.62849125 79.21200241 89.66819093 64.82443315 49.23510742 57.94287109 C48.25719238 57.77577637 47.27927734 57.60868164 46.27172852 57.43652344 C-10.25357755 48.19488811 -82.66073869 54.78098867 -130.45239258 89.13037109 C-151.81127453 105.55591837 -165.09067773 132.0877561 -170.45239258 158.13037109 C-170.78239258 158.13037109 -171.11239258 158.13037109 -171.45239258 158.13037109 C-172.82685261 116.89657014 -161.92412451 71.97229975 -134.08129883 40.64208984 C-126.98282417 33.86004051 -119.43312338 28.58781043 -110.70239258 24.13037109 C-109.70651123 23.61909668 -108.71062988 23.10782227 -107.68457031 22.58105469 C-74.00241257 5.69082999 -37.33508977 -0.09118951 0 0 Z " fill="#986B3E" transform="translate(286.452392578125,110.86962890625)"/>
<path d="M0 0 C0.33 0 0.66 0 1 0 C0.11667638 45.61161977 -22.20902721 90.82132727 -50 126 C-50.48194824 126.61649414 -50.96389648 127.23298828 -51.46044922 127.86816406 C-62.93701457 142.411106 -76.54936767 152.62820843 -93 161 C-93.60247559 161.31275879 -94.20495117 161.62551758 -94.82568359 161.94775391 C-110.283547 169.89932973 -126.66170198 174.73830451 -143.625 178.3125 C-145.33743896 178.67613647 -145.33743896 178.67613647 -147.08447266 179.04711914 C-163.68895526 182.36918912 -180.22580367 183.38495973 -197.125 183.3125 C-198.01564148 183.31067719 -198.90628296 183.30885437 -199.82391357 183.30697632 C-214.3852761 183.25704514 -228.63706631 182.56598218 -243 180 C-244.4228833 179.75056641 -244.4228833 179.75056641 -245.87451172 179.49609375 C-289.59466087 171.55366127 -330.0233956 150.67838494 -363 121 C-362.01 120.505 -362.01 120.505 -361 120 C-358.73712013 121.22201654 -356.60372368 122.49769603 -354.4375 123.875 C-326.91017678 140.78426219 -296.60288782 152.4995196 -264.62060547 157.578125 C-262.91370029 157.85290906 -261.2092847 158.14379459 -259.50830078 158.453125 C-218.9331607 165.79446444 -174.46432134 162.16594575 -135 151 C-134.10700195 150.74911621 -133.21400391 150.49823242 -132.29394531 150.23974609 C-101.0806849 141.22811967 -70.92772644 125.16843792 -51 99 C-50.14704185 97.95261267 -49.29009438 96.90846452 -48.4296875 95.8671875 C-40.72324616 86.46360974 -34.24745411 76.41741578 -28 66 C-27.56300781 65.2786084 -27.12601562 64.5572168 -26.67578125 63.81396484 C-14.72829948 43.91221732 -6.47424389 22.22925053 0 0 Z " fill="#7E4D30" transform="translate(484,236)"/>
<path d="M0 0 C0.73734375 0.25507324 1.4746875 0.51014648 2.234375 0.77294922 C31.32339198 10.84453974 64.65007952 26.5932874 80 55 C80.44078194 59.23150665 79.80362003 62.16730743 78 66 C77.34 66 76.68 66 76 66 C74.73330362 64.54894875 73.53660763 63.03646906 72.375 61.5 C46.08088382 28.08163131 1.1205835 13.69406206 -39.3125 6.8125 C-40.29041504 6.64540527 -41.26833008 6.47831055 -42.27587891 6.30615234 C-98.80118497 -2.93548298 -171.20834611 3.65061758 -219 38 C-240.35888196 54.42554727 -253.63828515 80.95738501 -259 107 C-259.33 107 -259.66 107 -260 107 C-261.07428151 92.88087162 -258.52195251 81.96776335 -253 69 C-252.65227539 68.17258301 -252.30455078 67.34516602 -251.94628906 66.49267578 C-247.18163554 55.34233648 -241.51386176 45.50913934 -234 36 C-233.14341797 34.86884766 -233.14341797 34.86884766 -232.26953125 33.71484375 C-209.89610377 5.92759925 -165.39049775 -4.8565894 -132 -10 C-130.59983643 -10.22429687 -130.59983643 -10.22429687 -129.17138672 -10.453125 C-87.02187087 -16.9820435 -40.28412968 -14.3999841 0 0 Z " fill="#5B4139" transform="translate(375,162)"/>
<path d="M0 0 C0.66 0 1.32 0 2 0 C3.36938477 1.78149414 3.36938477 1.78149414 4.94140625 4.28515625 C5.81019409 5.65861206 5.81019409 5.65861206 6.6965332 7.05981445 C7.31230225 8.05070068 7.92807129 9.04158691 8.5625 10.0625 C9.19438232 11.06949951 9.82626465 12.07649902 10.47729492 13.11401367 C12.32720501 16.07051794 14.1655933 19.03385764 16 22 C16.45955078 22.73927734 16.91910156 23.47855469 17.39257812 24.24023438 C44.17560573 67.44559994 44.17560573 67.44559994 40.38671875 86.00390625 C37.6840991 95.32615817 32.85761954 101.99463119 24.4375 106.9375 C15.03833874 111.57314076 5.37794225 112.72676794 -4.6875 109.4375 C-14.36183115 105.43673193 -20.57920422 99.48597873 -25 90 C-26.0437573 87.33262023 -26.64302914 84.83929133 -27 82 C-27.09410156 81.32324219 -27.18820313 80.64648438 -27.28515625 79.94921875 C-28.99252297 54.6013898 -11.73724037 23.03974168 -1 1 C-0.67 0.67 -0.34 0.34 0 0 Z " fill="#F5D039" transform="translate(52,234)"/>
<path d="M0 0 C3.625 0.4375 3.625 0.4375 6.125 2.5625 C8.00709925 6.16985689 7.593694 7.54335014 6.625 11.4375 C-14.57536891 52.95488912 -57.36161382 82.48443957 -97.375 103.4375 C-98.03193848 103.80915283 -98.68887695 104.18080566 -99.36572266 104.5637207 C-101.7236307 105.58910987 -103.56304086 105.75344626 -106.12890625 105.8515625 C-107.05759521 105.89031494 -107.98628418 105.92906738 -108.94311523 105.96899414 C-109.93126221 105.99985107 -110.91940918 106.03070801 -111.9375 106.0625 C-113.45742554 106.11942017 -113.45742554 106.11942017 -115.00805664 106.17749023 C-124.46436373 106.50331502 -133.91459844 106.53685077 -143.375 106.4375 C-140.88505908 104.77753939 -139.12129634 103.88413832 -136.3671875 102.9140625 C-100.67611403 90.01920012 -67.07532568 71.58510095 -39.83251953 44.86425781 C-38.33866081 43.40192777 -36.82489124 41.96245614 -35.30859375 40.5234375 C-24.35354458 30.000389 -15.61402088 18.13899586 -7.37109375 5.421875 C-4.10017848 0.53150462 -4.10017848 0.53150462 0 0 Z " fill="#B6ADBE" transform="translate(343.375,200.5625)"/>
<path d="M0 0 C4.32161366 3.73510895 6.88702648 8.4494479 9.75 13.3125 C10.2764209 14.20026123 10.8028418 15.08802246 11.34521484 16.00268555 C27.97541063 44.23138986 27.97541063 44.23138986 26 55 C23.18635105 61.80883021 19.79901221 66.12349484 13 69 C12.34 69 11.68 69 11 69 C11 69.66 11 70.32 11 71 C9.083412 71.02712153 7.1667127 71.04645097 5.25 71.0625 C3.64898437 71.07990234 3.64898437 71.07990234 2.015625 71.09765625 C-2.27437945 70.95873124 -4.21099235 70.70808379 -7.4375 67.8125 C-8.283125 66.884375 -9.12875 65.95625 -10 65 C-10.67289063 64.26330078 -10.67289063 64.26330078 -11.359375 63.51171875 C-16.18137495 58.02314822 -17.29889244 53.96783667 -17.23901367 46.84033203 C-16.81685526 41.82358944 -15.1766136 37.28287151 -13.5 32.5625 C-12.96620728 31.01163696 -12.96620728 31.01163696 -12.42163086 29.42944336 C-3.26064112 3.26064112 -3.26064112 3.26064112 0 0 Z " fill="#F2AC01" transform="translate(54,274)"/>
<path d="M0 0 C4.32826768 3.714329 6.78450121 8.42007298 9.5625 13.3125 C10.04396484 14.14201172 10.52542969 14.97152344 11.02148438 15.82617188 C18.82768483 29.43065052 18.82768483 29.43065052 17.71875 36.77734375 C16.48627606 40.58863544 14.07055948 43.46699204 11 46 C10.34 46 9.68 46 9 46 C9 46.66 9 47.32 9 48 C-1.3119505 49.21914686 -1.3119505 49.21914686 -5.3203125 46.32421875 C-9.4042133 41.65080089 -11.38908562 37.83720909 -11.2734375 31.4765625 C-10.05646033 20.45422638 -4.56090624 9.98018529 0 0 Z " fill="#E50500" transform="translate(56,297)"/>
<path d="M0 0 C7.0617027 4.13487738 13.95373285 9.6777376 18.5 16.5625 C18.5 17.2225 18.5 17.8825 18.5 18.5625 C-0.43634952 19.47290142 -0.43634952 19.47290142 -7.5 13.5625 C-12.87759348 11.76996884 -18.77011366 11.4556777 -24.08203125 13.609375 C-26.28302719 14.8504009 -28.3855768 16.18079771 -30.5 17.5625 C-32.48 18.5525 -32.48 18.5525 -34.5 19.5625 C-36.15 14.9425 -37.8 10.3225 -39.5 5.5625 C-27.07654838 -2.05721699 -14.19435875 -6.66341159 0 0 Z " fill="#D5D7FA" transform="translate(127.5,289.4375)"/>
<path d="M0 0 C1.42122098 0.4008572 2.83686706 0.82150163 4.25 1.25 C5.43335937 1.59804688 5.43335937 1.59804688 6.640625 1.953125 C9 3 9 3 13 7 C8.71 7 4.42 7 0 7 C0 4.69 0 2.38 0 0 Z " fill="#886C61" transform="translate(115,301)"/>
</svg>
