<?xml version="1.0" encoding="UTF-8"?>
<svg version="1.1" xmlns="http://www.w3.org/2000/svg" width="128" height="128">
<path d="M0 0 C0.99 0.33 1.98 0.66 3 1 C3.33 1.99 3.66 2.98 4 4 C4.66 4.33 5.32 4.66 6 5 C5.690625 5.804375 5.38125 6.60875 5.0625 7.4375 C4.9765292 12.3378356 7.12156197 14.24805339 10.23828125 17.8515625 C13.06352473 21.29698138 14.3805862 23.82050215 14.0625 28.3125 C13.39592767 33.98258365 11.07650387 38.69788564 8.52758789 43.73364258 C6.80130541 47.1505536 5.52191259 50.19438734 5 54 C5.49371094 54.40992188 5.98742187 54.81984375 6.49609375 55.2421875 C7.13675781 55.78101563 7.77742188 56.31984375 8.4375 56.875 C9.07558594 57.40867188 9.71367188 57.94234375 10.37109375 58.4921875 C13.36468499 61.26323359 13.20562188 63.74426947 13.4296875 67.6796875 C13.50316406 68.83726563 13.57664063 69.99484375 13.65234375 71.1875 C13.79840316 73.60644882 13.93920877 76.02572182 14.07421875 78.4453125 C14.52702068 85.41385751 15.48547511 91.77995181 17.48095703 98.48095703 C18.01844217 101.08950436 17.87357787 102.51624106 17 105 C15.02 105 13.04 105 11 105 C11.09667969 105.75667969 11.19335938 106.51335937 11.29296875 107.29296875 C11 110 11 110 8.98828125 111.80078125 C7.66376953 112.54908203 7.66376953 112.54908203 6.3125 113.3125 C5.44238281 113.82425781 4.57226562 114.33601563 3.67578125 114.86328125 C0.87100695 116.05479851 -0.98919592 116.23326951 -4 116 C-4.20086443 112.28400809 -4.1519437 111.22791555 -2 108 C-2.86625 108.04125 -3.7325 108.0825 -4.625 108.125 C-8.34392179 107.98726216 -10.71692064 107.79077056 -14 106 C-14.75882601 103.98082504 -15.1300899 102.03328612 -15.5 99.91015625 C-15.88351941 97.75503636 -15.88351941 97.75503636 -18.125 96 C-18.74375 95.67 -19.3625 95.34 -20 95 C-19.125 89.25 -19.125 89.25 -18 87 C-18.07419712 83.2419158 -18.1749904 79.4928754 -18.390625 75.74023438 C-18.50682327 71.30654418 -18.4622058 69.58936951 -15.62890625 65.9765625 C-13.26296935 64.19771544 -11.9008561 63.32231734 -9 63 C-9.33 62.01 -9.66 61.02 -10 60 C-12.65833217 58.9291345 -12.65833217 58.9291345 -15.8125 58.125 C-20.61288843 56.65234814 -23.45436458 55.58214376 -26 51 C-22.84255902 44.06601197 -17.51328839 38.81265662 -11 35 C-11.495 33.515 -11.495 33.515 -12 32 C-12.32831017 29.71585919 -12.59154008 27.42201187 -12.8125 25.125 C-12.94269531 23.91070313 -13.07289062 22.69640625 -13.20703125 21.4453125 C-12.95812175 17.30308263 -12.00258494 15.80525698 -9 13 C-8.01 13 -7.02 13 -6 13 C-6 12.34 -6 11.68 -6 11 C-4.35 11 -2.7 11 -1 11 C-1.01160156 10.28972656 -1.02320312 9.57945313 -1.03515625 8.84765625 C-1.04417969 7.92855469 -1.05320312 7.00945313 -1.0625 6.0625 C-1.07410156 5.14597656 -1.08570312 4.22945312 -1.09765625 3.28515625 C-1 1 -1 1 0 0 Z M5 23 C3.31369881 26.51033129 3.31369881 26.51033129 3.375 30.3125 C3.58125 30.869375 3.7875 31.42625 4 32 C5.32 30.68 6.64 29.36 8 28 C7.34 26.35 6.68 24.7 6 23 C5.67 23 5.34 23 5 23 Z M-17 49 C-16.67 49.66 -16.34 50.32 -16 51 C-15.34 50.67 -14.68 50.34 -14 50 C-14.99 49.67 -15.98 49.34 -17 49 Z " fill="#F78B1E" transform="translate(68,6)"/>
<path d="M0 0 C0.99 0.33 1.98 0.66 3 1 C3.33 1.99 3.66 2.98 4 4 C4.66 4.33 5.32 4.66 6 5 C5.690625 5.804375 5.38125 6.60875 5.0625 7.4375 C4.9765292 12.3378356 7.12156197 14.24805339 10.23828125 17.8515625 C13.06352473 21.29698138 14.3805862 23.82050215 14.0625 28.3125 C13.06596744 36.6584602 8.61230834 45.08153749 4 52 C1.3984375 52.29296875 1.3984375 52.29296875 -1.625 52.1875 C-3.12933594 52.14689453 -3.12933594 52.14689453 -4.6640625 52.10546875 C-5.43492188 52.07066406 -6.20578125 52.03585938 -7 52 C-7 50.68 -7 49.36 -7 48 C-7.45375 48.45375 -7.9075 48.9075 -8.375 49.375 C-9.58333333 50.58333333 -10.79166667 51.79166667 -12 53 C-15.89565217 49.71304348 -15.89565217 49.71304348 -16.375 46.4375 C-16 44 -16 44 -14 41 C-14.99 40.34 -15.98 39.68 -17 39 C-15.02 37.68 -13.04 36.36 -11 35 C-11.495 33.515 -11.495 33.515 -12 32 C-12.32831017 29.71585919 -12.59154008 27.42201187 -12.8125 25.125 C-12.94269531 23.91070313 -13.07289062 22.69640625 -13.20703125 21.4453125 C-12.95812175 17.30308263 -12.00258494 15.80525698 -9 13 C-8.01 13 -7.02 13 -6 13 C-6 12.34 -6 11.68 -6 11 C-4.35 11 -2.7 11 -1 11 C-1.01160156 10.28972656 -1.02320312 9.57945313 -1.03515625 8.84765625 C-1.04869141 7.46900391 -1.04869141 7.46900391 -1.0625 6.0625 C-1.07410156 5.14597656 -1.08570312 4.22945312 -1.09765625 3.28515625 C-1 1 -1 1 0 0 Z M5 23 C3.31369881 26.51033129 3.31369881 26.51033129 3.375 30.3125 C3.58125 30.869375 3.7875 31.42625 4 32 C5.32 30.68 6.64 29.36 8 28 C7.34 26.35 6.68 24.7 6 23 C5.67 23 5.34 23 5 23 Z " fill="#F05E25" transform="translate(68,6)"/>
<path d="M0 0 C0.99 0.33 1.98 0.66 3 1 C3.33 1.99 3.66 2.98 4 4 C4.66 4.33 5.32 4.66 6 5 C5.690625 5.804375 5.38125 6.60875 5.0625 7.4375 C4.9765292 12.3378356 7.12156197 14.24805339 10.23828125 17.8515625 C12.61172418 20.74600509 13.99368439 22.66740647 14.01171875 26.47265625 C13.90472656 27.32730469 13.79773438 28.18195312 13.6875 29.0625 C13.58824219 29.91972656 13.48898438 30.77695312 13.38671875 31.66015625 C13 34 13 34 12 37 C10.00045254 37.04254356 7.99958364 37.04080783 6 37 C5 36 5 36 4.8125 33.75 C5.01386239 30.79668501 5.89671468 28.72143711 7 26 C6.67 25.34 6.34 24.68 6 24 C5.01 23.67 4.02 23.34 3 23 C2.5978125 21.2984375 2.5978125 21.2984375 2.1875 19.5625 C1.5996875 17.7990625 1.5996875 17.7990625 1 16 C-1.99615946 14.6954344 -1.99615946 14.6954344 -5 14 C-5.33 13.01 -5.66 12.02 -6 11 C-4.35 11 -2.7 11 -1 11 C-1.01160156 10.28972656 -1.02320312 9.57945313 -1.03515625 8.84765625 C-1.04869141 7.46900391 -1.04869141 7.46900391 -1.0625 6.0625 C-1.07410156 5.14597656 -1.08570312 4.22945312 -1.09765625 3.28515625 C-1 1 -1 1 0 0 Z " fill="#F7BF94" transform="translate(68,6)"/>
<path d="M0 0 C5.41538462 -0.36923077 5.41538462 -0.36923077 8.375 1.5 C8.91125 1.995 9.4475 2.49 10 3 C9.67 5.31 9.34 7.62 9 10 C9.66 10 10.32 10 11 10 C11 9.34 11 8.68 11 8 C11.99 8 12.98 8 14 8 C13.814375 9.2375 13.62875 10.475 13.4375 11.75 C13.09536253 14.3070274 12.92697503 15.76100919 13.6875 18.25 C13.790625 18.8275 13.89375 19.405 14 20 C12.375 22.3125 12.375 22.3125 10 24 C7.25 23.75 7.25 23.75 5 23 C5.33 21.68 5.66 20.36 6 19 C5.195625 18.87625 4.39125 18.7525 3.5625 18.625 C2.2940625 18.315625 2.2940625 18.315625 1 18 C-0.46493069 15.07013861 -0.39150493 12.2555884 -0.625 9 C-0.72039063 7.741875 -0.81578125 6.48375 -0.9140625 5.1875 C-1 2 -1 2 0 0 Z " fill="#FACDAA" transform="translate(56,22)"/>
<path d="M0 0 C1.65 0.33 3.3 0.66 5 1 C4.01 2.485 4.01 2.485 3 4 C2.60986284 5.9896995 2.26797351 7.99019869 2 10 C3.32 10.66 4.64 11.32 6 12 C6.45375 11.34 6.9075 10.68 7.375 10 C8.179375 9.01 8.179375 9.01 9 8 C9.66 8 10.32 8 11 8 C11 9.65 11 11.3 11 13 C11.66 13.33 12.32 13.66 13 14 C12.01 15.65 11.02 17.3 10 19 C4.4029413 18.63930066 -0.16835451 18.10605782 -5 15 C-6.875 12.8125 -6.875 12.8125 -8 11 C-6.63629701 8.00779732 -5.05091917 5.70973471 -2.875 3.25 C-2.33617187 2.63640625 -1.79734375 2.0228125 -1.2421875 1.390625 C-0.62730469 0.70226563 -0.62730469 0.70226563 0 0 Z " fill="#F7BE92" transform="translate(50,46)"/>
<path d="M0 0 C6.625 0.75 6.625 0.75 10 3 C10 3.66 10 4.32 10 5 C10.66 5.33 11.32 5.66 12 6 C12 7.32 12 8.64 12 10 C12.66 10 13.32 10 14 10 C13.814375 11.2375 13.62875 12.475 13.4375 13.75 C13.00287132 16.9792094 13.00287132 16.9792094 13.6875 20.125 C14 22 14 22 12.0625 25.25 C11.381875 26.1575 10.70125 27.065 10 28 C9.34 27.01 8.68 26.02 8 25 C8.66 24.34 9.32 23.68 10 23 C9.74057202 20.98943317 9.47688988 18.97890155 9.16015625 16.9765625 C8.95785013 14.47980895 9.56255279 13.02933724 11 11 C10.01 11 9.02 11 8 11 C8 11.66 8 12.32 8 13 C7.34 13 6.68 13 6 13 C6.061875 11.88625 6.12375 10.7725 6.1875 9.625 C6.125625 8.42875 6.06375 7.2325 6 6 C3.08235 4.0549 1.37462715 3.54723683 -2 3 C-1.34 2.01 -0.68 1.02 0 0 Z " fill="#8A6E56" transform="translate(59,19)"/>
<path d="M0 0 C-0.33 1.32 -0.66 2.64 -1 4 C0.98 4 2.96 4 5 4 C4.505 4.598125 4.01 5.19625 3.5 5.8125 C1.71723582 7.97029994 1.71723582 7.97029994 2 11 C-1.01324195 12.50662097 -3.68286377 12.17770373 -7 12 C-7.66 11.34 -8.32 10.68 -9 10 C-9 8.68 -9 7.36 -9 6 C-9.99 5.34 -10.98 4.68 -12 4 C-3.69811321 -1.8490566 -3.69811321 -1.8490566 0 0 Z " fill="#F68E29" transform="translate(63,41)"/>
<path d="M0 0 C0.66 0.66 1.32 1.32 2 2 C1.890625 3.953125 1.890625 3.953125 1 6 C-0.890625 7.484375 -0.890625 7.484375 -3.25 8.75 C-4.01828125 9.17796875 -4.7865625 9.6059375 -5.578125 10.046875 C-8.22886381 11.09006898 -10.1774429 11.18016322 -13 11 C-13.375 8.75 -13.375 8.75 -13 6 C-8.96914462 2.55902589 -5.03923926 1.20941742 0 0 Z " fill="#FDCEAB" transform="translate(77,111)"/>
<path d="M0 0 C0.66 0.33 1.32 0.66 2 1 C1.72776186 4.35760377 1.41629629 5.64317461 -1.1875 7.875 C-4.66318968 9.26527587 -6.44263841 9.08267527 -10 8 C-11.6796875 6.4453125 -11.6796875 6.4453125 -13 5 C-12.09507813 4.83564453 -12.09507813 4.83564453 -11.171875 4.66796875 C-5.06315013 3.49202872 -5.06315013 3.49202872 0 0 Z " fill="#F15F23" transform="translate(75,64)"/>
<path d="M0 0 C2.31 0.66 4.62 1.32 7 2 C6.34 3.98 5.68 5.96 5 8 C2.625 7.75 2.625 7.75 0 7 C-1.3125 4.9375 -1.3125 4.9375 -2 3 C-1.34 2.01 -0.68 1.02 0 0 Z " fill="#F06734" transform="translate(72,41)"/>
<path d="M0 0 C0.66 0.99 1.32 1.98 2 3 C5.465 2.505 5.465 2.505 9 2 C4.81538462 6.92307692 4.81538462 6.92307692 0.6875 7.3125 C-0.199375 7.209375 -1.08625 7.10625 -2 7 C-1.34 6.34 -0.68 5.68 0 5 C-0.66 3.68 -1.32 2.36 -2 1 C-1.34 0.67 -0.68 0.34 0 0 Z " fill="#FAB717" transform="translate(59,43)"/>
<path d="M0 0 C5.41538462 -0.36923077 5.41538462 -0.36923077 8.375 1.5 C8.91125 1.995 9.4475 2.49 10 3 C9.67 4.32 9.34 5.64 9 7 C7.68 5.35 6.36 3.7 5 2 C3.02 2.33 1.04 2.66 -1 3 C-0.67 2.01 -0.34 1.02 0 0 Z " fill="#EBC622" transform="translate(56,22)"/>
<path d="M0 0 C2.9375 0.8125 2.9375 0.8125 6 2 C6.33 2.99 6.66 3.98 7 5 C4.69 5 2.38 5 0 5 C-0.5625 3.0625 -0.5625 3.0625 -1 1 C-0.67 0.67 -0.34 0.34 0 0 Z " fill="#F47320" transform="translate(56,46)"/>
<path d="M0 0 C1.98 0 3.96 0 6 0 C6.33 1.32 6.66 2.64 7 4 C3.89448334 4 2.64738916 3.4606285 0 2 C0 1.34 0 0.68 0 0 Z " fill="#F0A983" transform="translate(62,17)"/>
</svg>
