<?xml version="1.0" encoding="UTF-8"?>
<svg version="1.1" xmlns="http://www.w3.org/2000/svg" width="128" height="128">
<path d="M0 0 C4.24678688 0.46281835 6.21918082 1.56815286 9.71704102 3.82641602 C16.80365121 8.48344102 16.80365121 8.48344102 24.97265625 9.12890625 C27.66374486 8.44358361 30.2676255 7.53751458 32.89453125 6.640625 C44.50049581 2.7242561 57.60240917 5.66564681 68.87109375 9.421875 C70.73875644 8.7304748 70.73875644 8.7304748 72.63671875 7.55078125 C73.72533203 6.93686523 73.72533203 6.93686523 74.8359375 6.31054688 C76.34599573 5.43419684 77.85385849 4.55405155 79.359375 3.66992188 C84.02922547 1.04673427 87.35693438 -0.31287974 92.87109375 0.421875 C94.87109375 2.421875 94.87109375 2.421875 95.30859375 4.796875 C94.87109375 7.421875 94.87109375 7.421875 92.93359375 9.421875 C89.02479538 11.97455965 84.99181747 14.23133777 80.87109375 16.421875 C81.51175781 16.96714844 82.15242188 17.51242188 82.8125 18.07421875 C96.11666044 29.67322599 105.29419279 43.4452041 106.87109375 61.421875 C108.07843118 79.11967496 102.69397236 95.83692202 91.24609375 109.359375 C79.66591196 121.17080466 64.86866507 128.3894543 48.26855469 128.71411133 C38.35163758 128.78346624 30.08044086 128.41739544 20.87109375 124.421875 C19.99582031 124.05964844 19.12054688 123.69742188 18.21875 123.32421875 C3.95567451 116.84100262 -6.78451163 105.21001465 -12.91015625 90.8828125 C-18.71904705 74.38705209 -18.81856462 57.75951446 -11.81640625 41.609375 C-6.90465462 31.65469736 -0.48499641 22.65926844 8.87109375 16.421875 C8.02804688 15.93976562 7.185 15.45765625 6.31640625 14.9609375 C5.22070312 14.32929688 4.125 13.69765625 2.99609375 13.046875 C1.90554687 12.42039062 0.815 11.79390625 -0.30859375 11.1484375 C-3.12890625 9.421875 -3.12890625 9.421875 -5.12890625 7.421875 C-5.37890625 4.921875 -5.37890625 4.921875 -5.12890625 2.421875 C-3.12890625 0.421875 -3.12890625 0.421875 0 0 Z " fill="#C56A48" transform="translate(19.12890625,-0.421875)"/>
<path d="M0 0 C1.17044357 0.00303635 1.17044357 0.00303635 2.36453247 0.00613403 C3.59129196 0.00350555 3.59129196 0.00350555 4.84283447 0.00082397 C7.55972383 -0.00359528 10.27654865 -0.0006563 12.99343872 0.00271606 C14.87291476 0.00204305 16.75239071 0.00107304 18.63186646 -0.00018311 C22.57629218 -0.00166018 26.5206953 0.00049478 30.46511841 0.00515747 C35.53306375 0.01085476 40.60095614 0.00757581 45.66889954 0.00158501 C49.55150759 -0.00202035 53.434103 -0.00088214 57.31671143 0.0017128 C59.18591315 0.00238214 61.055116 0.00155341 62.92431641 -0.00076675 C65.53202376 -0.00329287 68.13964413 0.00054672 70.74734497 0.00613403 C71.52764069 0.0041098 72.3079364 0.00208557 73.11187744 0 C78.44167619 0.02126603 78.44167619 0.02126603 79.55593872 1.13552856 C79.681088 3.11172304 79.73166632 5.0929103 79.74343872 7.07302856 C79.75761841 8.154552 79.7717981 9.23607544 79.78640747 10.35037231 C79.55593872 13.13552856 79.55593872 13.13552856 77.55593872 15.13552856 C77.15829609 17.1237417 76.81818523 19.12497196 76.55593872 21.13552856 C78.04093872 21.63052856 78.04093872 21.63052856 79.55593872 22.13552856 C79.06093872 23.62052856 79.06093872 23.62052856 78.55593872 25.13552856 C77.89593872 25.13552856 77.23593872 25.13552856 76.55593872 25.13552856 C76.65954712 26.33040894 76.76315552 27.52528931 76.86990356 28.75637817 C77.2375287 33.22031255 77.50874577 37.68595309 77.75222778 42.15823364 C77.87048875 44.08708299 78.01433719 46.01454921 78.18484497 47.93948364 C79.53475551 63.46747246 79.53475551 63.46747246 76.25579834 67.88851929 C72.49792636 71.30063252 68.2247818 73.24764438 63.55593872 75.13552856 C62.45620728 75.5995105 61.35647583 76.06349243 60.22341919 76.54153442 C46.57303051 82.01170002 29.12886481 82.46595145 15.31765747 77.33865356 C14.40629028 76.94162231 13.4949231 76.54459106 12.55593872 76.13552856 C11.63425903 75.73849731 10.71257935 75.34146606 9.76296997 74.93240356 C-0.1750488 70.29368284 -0.1750488 70.29368284 -3.44406128 66.13552856 C-4.26469893 62.97160292 -4.14556702 59.92904683 -4.02999878 56.67849731 C-4.02150909 55.77553421 -4.01301941 54.87257111 -4.00427246 53.94224548 C-3.97077673 51.06794164 -3.89550714 48.19647924 -3.81906128 45.32302856 C-3.78895661 43.37059522 -3.76158168 41.41811775 -3.73703003 39.46560669 C-3.67099815 34.68782492 -3.56750475 29.91215787 -3.44406128 25.13552856 C-4.43406128 24.80552856 -5.42406128 24.47552856 -6.44406128 24.13552856 C-5.94906128 22.65052856 -5.94906128 22.65052856 -5.44406128 21.13552856 C-4.78406128 21.13552856 -4.12406128 21.13552856 -3.44406128 21.13552856 C-4.30447518 16.80323142 -4.30447518 16.80323142 -6.44406128 13.13552856 C-6.54279944 11.13753285 -6.57377927 9.13595698 -6.56906128 7.13552856 C-6.5716394 6.04240356 -6.57421753 4.94927856 -6.57687378 3.82302856 C-6.34135547 -0.94275368 -4.24534396 0.01693903 0 0 Z " fill="#B96142" transform="translate(27.444061279296875,47.864471435546875)"/>
<path d="M0 0 C4.95565669 1.34798337 9.28976228 3.64651011 13.8359375 6.00390625 C14.76277344 6.47634766 15.68960938 6.94878906 16.64453125 7.43554688 C18.92047341 8.59698127 21.19232523 9.76573692 23.4609375 10.94140625 C17.83098477 16.78263756 12.41431013 20.20489595 4.34375 21.484375 C2.23117113 21.82427 2.23117113 21.82427 0.4609375 23.94140625 C0.25221031 26.72443544 0.20452852 28.4285883 1.4609375 30.94140625 C0.82285156 31.00199219 0.18476563 31.06257813 -0.47265625 31.125 C-1.71208984 31.25068359 -1.71208984 31.25068359 -2.9765625 31.37890625 C-4.21212891 31.50072266 -4.21212891 31.50072266 -5.47265625 31.625 C-7.52568275 31.7307144 -7.52568275 31.7307144 -8.5390625 32.94140625 C-8.66421178 34.91760072 -8.7147901 36.89878798 -8.7265625 38.87890625 C-8.74783203 40.50119141 -8.74783203 40.50119141 -8.76953125 42.15625 C-8.82954281 45.0818494 -8.82954281 45.0818494 -6.5390625 46.94140625 C-6.4140625 50.06640625 -6.4140625 50.06640625 -6.5390625 52.94140625 C-7.5290625 53.43640625 -7.5290625 53.43640625 -8.5390625 53.94140625 C-8.5390625 54.60140625 -8.5390625 55.26140625 -8.5390625 55.94140625 C-7.8790625 56.27140625 -7.2190625 56.60140625 -6.5390625 56.94140625 C-6.5390625 70.47140625 -6.5390625 84.00140625 -6.5390625 97.94140625 C-20.70108659 85.80252846 -27.01051158 71.54100125 -28.82421875 53.03125 C-29.37465796 36.78132725 -23.21245151 20.41816234 -12.26171875 8.453125 C-3.85585033 -0.08898116 -3.85585033 -0.08898116 0 0 Z " fill="#46314C" transform="translate(30.5390625,16.05859375)"/>
<path d="M0 0 C2.96272235 2.00419453 5.45005891 4.4987219 8 7 C8.61359375 7.60070313 9.2271875 8.20140625 9.859375 8.8203125 C20.71870657 20.30429589 25.45788765 36.30152917 25.203125 51.86328125 C24.13917442 68.29313353 18.16611964 82.42334365 6.8828125 94.375 C5 96 5 96 3 96 C3 82.8 3 69.6 3 56 C3.99 55.505 3.99 55.505 5 55 C5 54.34 5 53.68 5 53 C4.34 52.67 3.68 52.34 3 52 C2.875 49.125 2.875 49.125 3 46 C3.66 45.34 4.32 44.68 5 44 C5.28162436 41.13617279 5.28162436 41.13617279 5.1875 37.9375 C5.18105469 36.85339844 5.17460938 35.76929688 5.16796875 34.65234375 C5.29831107 32.07797685 5.29831107 32.07797685 4 31 C2.48530552 30.76807135 0.96245438 30.58784762 -0.5625 30.4375 C-1.38878906 30.35371094 -2.21507813 30.26992188 -3.06640625 30.18359375 C-4.02353516 30.09271484 -4.02353516 30.09271484 -5 30 C-4.67 27.69 -4.34 25.38 -4 23 C-6.43666204 20.75827093 -7.70897814 20.02375689 -11.0625 19.75 C-16.78231136 19.21298714 -21.41218149 15.17745839 -26 12 C-24.56376863 7.69130589 -21.96099135 7.124407 -18.046875 5.1328125 C-17.12390625 4.67648438 -16.2009375 4.22015625 -15.25 3.75 C-14.3425 3.27820313 -13.435 2.80640625 -12.5 2.3203125 C-11.61828125 1.87945313 -10.7365625 1.43859375 -9.828125 0.984375 C-9.0227832 0.57928711 -8.21744141 0.17419922 -7.38769531 -0.24316406 C-4.50212483 -1.15781319 -2.86997019 -0.87510863 0 0 Z " fill="#46314C" transform="translate(101,17)"/>
<path d="M0 0 C2.31 0 4.62 0 7 0 C8 1 8 1 8 10 C13.94 10 19.88 10 26 10 C26.46750438 15.11429238 26.886726 20.19295152 27.19628906 25.3137207 C27.31446631 27.04876283 27.45828357 28.78226764 27.62890625 30.51293945 C28.97853348 44.46310424 28.97853348 44.46310424 25.69985962 48.66705322 C21.91279632 52.01514844 17.62379128 54.04105014 13 56 C11.35040283 56.69984009 11.35040283 56.69984009 9.66748047 57.41381836 C3.71870247 59.78066806 -1.8933032 61.14808929 -8.3125 61.0625 C-9.19550781 61.05347656 -10.07851562 61.04445312 -10.98828125 61.03515625 C-11.65214844 61.02355469 -12.31601563 61.01195312 -13 61 C-11.21451554 55.07031215 -8.51571032 49.70472764 -5.74609375 44.18945312 C-3.86946268 40.32964234 -2.45889241 37.40740862 -3 33 C-1.515 32.505 -1.515 32.505 0 32 C0 21.44 0 10.88 0 0 Z " fill="#EC9C86" transform="translate(78,67)"/>
<path d="M0 0 C1.17044357 0.00303635 1.17044357 0.00303635 2.36453247 0.00613403 C3.59129196 0.00350555 3.59129196 0.00350555 4.84283447 0.00082397 C7.55972383 -0.00359528 10.27654865 -0.0006563 12.99343872 0.00271606 C14.87291476 0.00204305 16.75239071 0.00107304 18.63186646 -0.00018311 C22.57629218 -0.00166018 26.5206953 0.00049478 30.46511841 0.00515747 C35.53306375 0.01085476 40.60095614 0.00757581 45.66889954 0.00158501 C49.55150759 -0.00202035 53.434103 -0.00088214 57.31671143 0.0017128 C59.18591315 0.00238214 61.055116 0.00155341 62.92431641 -0.00076675 C65.53202376 -0.00329287 68.13964413 0.00054672 70.74734497 0.00613403 C71.52764069 0.0041098 72.3079364 0.00208557 73.11187744 0 C78.44167619 0.02126603 78.44167619 0.02126603 79.55593872 1.13552856 C79.681088 3.11172304 79.73166632 5.0929103 79.74343872 7.07302856 C79.75761841 8.154552 79.7717981 9.23607544 79.78640747 10.35037231 C79.55593872 13.13552856 79.55593872 13.13552856 77.55593872 15.13552856 C74.94670467 15.33392457 72.44361345 15.40828832 69.83328247 15.39431763 C69.03641022 15.39782227 68.23953796 15.4013269 67.41851807 15.40493774 C64.7767371 15.41376135 62.13522255 15.40790375 59.49343872 15.40115356 C57.66262765 15.40250004 55.83181692 15.40444042 54.00100708 15.4069519 C50.16088462 15.40990402 46.32085509 15.40560273 42.48074341 15.39627075 C37.55075178 15.38487616 32.6209779 15.39143517 27.69099426 15.40341568 C23.90955963 15.41063193 20.12817689 15.40834744 16.34674072 15.4031601 C14.52860488 15.40182295 12.71046438 15.40347359 10.89233398 15.4081192 C8.35429346 15.4131806 5.81660889 15.40547979 3.27859497 15.39431763 C2.14395309 15.40039032 2.14395309 15.40039032 0.98638916 15.40658569 C-4.21553267 15.36405717 -4.21553267 15.36405717 -6.44406128 13.13552856 C-6.67453003 10.35037231 -6.67453003 10.35037231 -6.63156128 7.07302856 C-6.62511597 5.988927 -6.61867065 4.90482544 -6.61203003 3.78787231 C-6.3128696 -0.93607962 -4.21981034 0.01683715 0 0 Z " fill="#FEF5D1" transform="translate(27.444061279296875,47.864471435546875)"/>
<path d="M0 0 C2 2 2 2 2.4375 4.375 C2 7 2 7 -0.04785156 8.92529297 C-3.45147086 11.3172841 -6.91132096 13.06695049 -10.671875 14.8203125 C-11.39489807 15.16504608 -12.11792114 15.50977966 -12.862854 15.86495972 C-15.15566584 16.9578859 -17.45229792 18.0423964 -19.75 19.125 C-22.78985381 20.55808296 -25.82568349 21.999239 -28.859375 23.4453125 C-29.91085724 23.93597702 -29.91085724 23.93597702 -30.98358154 24.43655396 C-34.64261472 25.99032021 -34.64261472 25.99032021 -37 29 C-36.29875 29.2475 -35.5975 29.495 -34.875 29.75 C-32 31 -32 31 -29.25 33 C-25.75234661 35.15240208 -23.0506472 35.79532366 -19.05078125 36.41015625 C-16.58620762 37.11901457 -15.56279862 37.98648829 -14 40 C-13.75 42.625 -13.75 42.625 -14 45 C-14.33 45.33 -14.66 45.66 -15 46 C-12.36 46.33 -9.72 46.66 -7 47 C-7 47.33 -7 47.66 -7 48 C-34.06 48 -61.12 48 -89 48 C-89 47.67 -89 47.34 -89 47 C-86.36 46.67 -83.72 46.34 -81 46 C-81.33 45.67 -81.66 45.34 -82 45 C-82.375 42.6875 -82.375 42.6875 -82 40 C-79.9375 37.625 -79.9375 37.625 -77 36 C-70.68421053 36.31578947 -70.68421053 36.31578947 -69 38 C-68.75 40.375 -68.75 40.375 -69 43 C-69.99 43.99 -70.98 44.98 -72 46 C-56.16 46 -40.32 46 -24 46 C-24.99 45.01 -25.98 44.02 -27 43 C-27 42.34 -27 41.68 -27 41 C-27.60585937 40.82984375 -28.21171875 40.6596875 -28.8359375 40.484375 C-34.31581103 38.89942696 -39.48354449 37.04056483 -44.67578125 34.671875 C-48.93249743 33.44136209 -52.74895015 35.16755005 -56.8125 36.5625 C-57.60269531 36.83191406 -58.39289062 37.10132813 -59.20703125 37.37890625 C-59.79871094 37.58386719 -60.39039062 37.78882813 -61 38 C-61.03930664 35.80395508 -61.03930664 35.80395508 -60 33 C-57.34072153 30.97100753 -54.37209685 29.5937266 -51.37109375 28.13671875 C-50.50686295 27.69987259 -49.64263214 27.26302643 -48.75221252 26.8129425 C-45.98874139 25.4209045 -43.21363048 24.05408856 -40.4375 22.6875 C-38.56233172 21.74837897 -36.6879713 20.807643 -34.81445312 19.86523438 C-30.21880134 17.55797601 -25.6125568 15.27326161 -21 13 C-21.495 10.525 -21.495 10.525 -22 8 C-19.65498903 6.64792161 -17.30112641 5.31881888 -14.9375 4 C-14.28072266 3.6184375 -13.62394531 3.236875 -12.94726562 2.84375 C-8.49160799 0.38545613 -5.21655057 -0.62520456 0 0 Z " fill="#E1886A" transform="translate(112,0)"/>
<path d="M0 0 C3.5 0.125 3.5 0.125 4.5 1.125 C4.64672747 3.37998945 4.72754984 5.63931762 4.78125 7.8984375 C4.80886414 8.91775864 4.80886414 8.91775864 4.83703613 9.95767212 C4.89594738 12.13835772 4.94866833 14.3191236 5 16.5 C5.06769437 19.36214345 5.14143684 22.22403964 5.21875 25.0859375 C5.24904297 26.36259277 5.27933594 27.63924805 5.31054688 28.95458984 C5.36404509 32.14892771 5.36404509 32.14892771 6.5 35.125 C6.64300537 35.91753174 6.78601074 36.71006348 6.93334961 37.52661133 C7.51187939 40.17947321 8.37199371 42.26717224 9.56640625 44.69921875 C9.96923828 45.53130859 10.37207031 46.36339844 10.78710938 47.22070312 C11.41842773 48.50364258 11.41842773 48.50364258 12.0625 49.8125 C12.90060335 51.52304478 13.73541173 53.23520919 14.56640625 54.94921875 C14.93709229 55.70291748 15.30777832 56.45661621 15.68969727 57.2331543 C16.5 59.125 16.5 59.125 16.5 61.125 C5.77558319 61.99651017 -3.87190203 58.6031851 -13.5 54.125 C-12.08820348 49.24788474 -9.94655276 45.0228841 -7.5234375 40.58984375 C-6.40647192 37.89974726 -6.39021971 36.00423766 -6.5 33.125 C-6.005 32.63 -6.005 32.63 -5.5 32.125 C-5.35334394 29.84653942 -5.27247035 27.56379348 -5.21875 25.28125 C-5.20034058 24.59695923 -5.18193115 23.91266846 -5.16296387 23.2076416 C-5.10404861 21.01351741 -5.05129816 18.81931474 -5 16.625 C-4.93254139 13.73941066 -4.85887387 10.85408175 -4.78125 7.96875 C-4.73581055 6.03805664 -4.73581055 6.03805664 -4.68945312 4.06835938 C-4.41594388 -0.18090276 -4.36356382 0.15584156 0 0 Z " fill="#EA9A84" transform="translate(46.5,66.875)"/>
<path d="M0 0 C2.81216581 2.19700454 3.89286057 3.562514 4.75 7.0625 C4.50687166 12.00963318 0.88526714 15.41096015 -2.01953125 19.1640625 C-6.45481564 25.51517979 -7.58871704 32.34755201 -7 40 C-6.46027327 42.85574818 -5.70550696 45.6358208 -4.9375 48.4375 C-3.04056826 55.92132998 -2.08950534 61.63315505 -5.3125 69 C-7.23798834 71.28206025 -8.1655381 71.43895187 -11 72 C-19.05034906 58.39768607 -19.4952169 42.47049516 -15.9765625 27.42578125 C-13.10525053 17.35321885 -7.94990102 7.03260475 0 0 Z " fill="#533C5A" transform="translate(20,23)"/>
<path d="M0 0 C10.45429982 7.39450475 14.84006448 19.03925233 18 31 C20.35969809 44.91923178 19.30976954 59.64901009 12 72 C9.6875 71.5 9.6875 71.5 7 70 C3.12292248 62.89202455 3.52030691 56.1053285 5.74609375 48.42578125 C6.01550781 47.60464844 6.28492187 46.78351563 6.5625 45.9375 C9.17362878 37.80827148 8.90707673 29.67416048 5 22 C3.63779127 20.10043082 2.23953818 18.22636104 0.8125 16.375 C-1.79559636 12.94707924 -2.93494216 11.37260398 -3.6875 7.0625 C-2.98591411 3.93725374 -2.20381527 2.2956409 0 0 Z " fill="#533D59" transform="translate(107,23)"/>
<path d="M0 0 C5.94 0 11.88 0 18 0 C18.35051328 5.16303506 18.67167888 10.31187816 18.92163086 15.47851562 C19.01502317 17.23306086 19.12487437 18.98681264 19.25170898 20.73925781 C20.29449197 35.37976472 20.29449197 35.37976472 16.98779297 39.51855469 C14.68856059 41.05137628 12.61834428 42.13599515 10 43 C7.16654675 40.31036934 5.58080061 37.62667182 3.8125 34.125 C3.28269531 33.09632812 2.75289063 32.06765625 2.20703125 31.0078125 C1.01112116 28.02771292 0.83592624 26.15700549 1 23 C0.67 22.67 0.34 22.34 0 22 C-0.08700342 20.36527118 -0.10701063 18.72685945 -0.09765625 17.08984375 C-0.09443359 16.10048828 -0.09121094 15.11113281 -0.08789062 14.09179688 C-0.07951172 13.05087891 -0.07113281 12.00996094 -0.0625 10.9375 C-0.05798828 9.89271484 -0.05347656 8.84792969 -0.04882812 7.77148438 C-0.03699927 5.18096546 -0.01906319 2.59047578 0 0 Z " fill="#D1714C" transform="translate(86,77)"/>
<path d="M0 0 C0.33 0 0.66 0 1 0 C1 10.23 1 20.46 1 31 C0.34 31.33 -0.32 31.66 -1 32 C-1.21462891 33.54880859 -1.21462891 33.54880859 -1.43359375 35.12890625 C-2.03588754 39.24527278 -3.2548554 42.20682922 -5.0625 45.9375 C-5.61035156 47.08089844 -6.15820312 48.22429687 -6.72265625 49.40234375 C-7.14417969 50.25957031 -7.56570312 51.11679688 -8 52 C-17.79052084 39.61514557 -20.18033098 28.43897694 -19.4675293 12.90087891 C-19 11 -19 11 -16 9 C-13.23344676 8.85754103 -10.57346694 8.81230555 -7.8125 8.875 C-7.06291016 8.88402344 -6.31332031 8.89304687 -5.54101562 8.90234375 C-3.69387346 8.92587422 -1.84689588 8.96174439 0 9 C0 6.03 0 3.06 0 0 Z " fill="#D1714B" transform="translate(77,68)"/>
<path d="M0 0 C8.58 0 17.16 0 26 0 C26 1.32 26 2.64 26 4 C24.86820313 4.06058594 23.73640625 4.12117188 22.5703125 4.18359375 C21.08852855 4.26799917 19.6067584 4.35264717 18.125 4.4375 C17.00544922 4.49647461 17.00544922 4.49647461 15.86328125 4.55664062 C11.80013136 4.71573624 11.80013136 4.71573624 8 6 C6.99397214 18.59397834 7.24786399 28.11146056 13.88647461 39.13623047 C17.02828659 44.3925455 17.02828659 44.3925455 16.84375 48.35546875 C16.08388611 50.73707917 15.24811814 52.83659522 14 55 C13.34 55 12.68 55 12 55 C10.15067943 51.27855534 8.32341683 47.54669638 6.5 43.8125 C5.97535156 42.75740234 5.45070313 41.70230469 4.91015625 40.61523438 C4.41386719 39.59365234 3.91757812 38.57207031 3.40625 37.51953125 C2.94541016 36.58214111 2.48457031 35.64475098 2.00976562 34.67895508 C0.96254522 31.90063073 0.88367313 29.93499151 1 27 C0.67 26.67 0.34 26.34 0 26 C-0.08748207 24.07332493 -0.10697334 22.14348139 -0.09765625 20.21484375 C-0.09515869 19.16159912 -0.09266113 18.10835449 -0.09008789 17.02319336 C-0.08098389 15.67491455 -0.07187988 14.32663574 -0.0625 12.9375 C-0.041875 8.668125 -0.02125 4.39875 0 0 Z " fill="#BB6243" transform="translate(51,73)"/>
<path d="M0 0 C0 0.66 0 1.32 0 2 C-3.36072762 3.8809508 -6.74048651 5.72474499 -10.125 7.5625 C-11.07632813 8.09552734 -12.02765625 8.62855469 -13.0078125 9.17773438 C-20.01660341 12.9498267 -20.01660341 12.9498267 -24.0625 13.15625 C-28.51530491 11.40355019 -32.68072893 9.23361074 -36.875 6.9375 C-37.75414062 6.46505859 -38.63328125 5.99261719 -39.5390625 5.50585938 C-41.69695524 4.34481926 -43.85027708 3.17607732 -46 2 C-46 1.34 -46 0.68 -46 0 C-44.62708132 -0.48509793 -43.25153297 -0.96275513 -41.875 -1.4375 C-41.10929687 -1.70433594 -40.34359375 -1.97117187 -39.5546875 -2.24609375 C-27.6595745 -5.75642526 -11.27785115 -5.63892557 0 0 Z " fill="#46304B" transform="translate(87,9)"/>
<path d="M0 0 C0.495 0.99 0.495 0.99 1 2 C1.721875 2.28875 2.44375 2.5775 3.1875 2.875 C6 4 6 4 8.75 6 C12.24765339 8.15240208 14.9493528 8.79532366 18.94921875 9.41015625 C21.41379238 10.11901457 22.43720138 10.98648829 24 13 C24.25 15.625 24.25 15.625 24 18 C23.505 18.495 23.505 18.495 23 19 C25.64 19.33 28.28 19.66 31 20 C31 20.33 31 20.66 31 21 C3.94 21 -23.12 21 -51 21 C-51 20.67 -51 20.34 -51 20 C-47.04 19.505 -47.04 19.505 -43 19 C-43.33 18.67 -43.66 18.34 -44 18 C-44.375 15.6875 -44.375 15.6875 -44 13 C-41.9375 10.625 -41.9375 10.625 -39 9 C-32.68421053 9.31578947 -32.68421053 9.31578947 -31 11 C-30.75 13.375 -30.75 13.375 -31 16 C-31.99 16.99 -32.98 17.98 -34 19 C-18.16 19 -2.32 19 14 19 C13.01 18.01 12.02 17.02 11 16 C11 15.34 11 14.68 11 14 C10.40574219 13.84144531 9.81148437 13.68289062 9.19921875 13.51953125 C2.47502505 11.62671778 -3.71039612 9.02522772 -10 6 C-6.82449818 3.53553446 -3.63235056 1.73362186 0 0 Z " fill="#B56044" transform="translate(74,27)"/>
<path d="M0 0 C0.74185547 0.27908203 1.48371094 0.55816406 2.24804688 0.84570312 C2.97185547 1.13767578 3.69566406 1.42964844 4.44140625 1.73046875 C5.41315796 2.11368286 5.41315796 2.11368286 6.40454102 2.50463867 C8.4375 3.8125 8.4375 3.8125 13.4375 9.8125 C-3.7225 9.8125 -20.8825 9.8125 -38.5625 9.8125 C-32.92872116 3.0519654 -32.92872116 3.0519654 -29.12890625 1.44140625 C-28.31486328 1.09529297 -27.50082031 0.74917969 -26.66210938 0.39257812 C-25.40624023 -0.11112305 -25.40624023 -0.11112305 -24.125 -0.625 C-23.29162109 -0.98787109 -22.45824219 -1.35074219 -21.59960938 -1.72460938 C-13.33164311 -5.14290689 -7.99175567 -3.23160076 0 0 Z " fill="#47314C" transform="translate(76.5625,37.1875)"/>
<path d="M0 0 C1.00023193 0.00523682 2.00046387 0.01047363 3.03100586 0.01586914 C4.1105957 0.0190918 5.19018555 0.02231445 6.30249023 0.02563477 C8.00695312 0.03820313 8.00695312 0.03820313 9.74584961 0.05102539 C11.45611328 0.05779297 11.45611328 0.05779297 13.20092773 0.06469727 C16.02845312 0.07652792 18.85587601 0.09301129 21.68334961 0.11352539 C21.67174805 1.02875977 21.66014648 1.94399414 21.64819336 2.88696289 C21.63916992 4.07547852 21.63014648 5.26399414 21.62084961 6.48852539 C21.60924805 7.67188477 21.59764648 8.85524414 21.58569336 10.07446289 C21.46868368 13.0327406 21.46868368 13.0327406 22.68334961 15.11352539 C18.72507726 15.17138186 14.76691291 15.20707256 10.80834961 15.23852539 C9.68041992 15.2552832 8.55249023 15.27204102 7.39038086 15.28930664 C5.77583008 15.29897461 5.77583008 15.29897461 4.12866211 15.30883789 C2.63616943 15.32454834 2.63616943 15.32454834 1.11352539 15.34057617 C-1.31665039 15.11352539 -1.31665039 15.11352539 -3.31665039 13.11352539 C-3.54711914 10.32836914 -3.54711914 10.32836914 -3.50415039 7.05102539 C-3.49770508 5.96692383 -3.49125977 4.88282227 -3.48461914 3.76586914 C-3.25623784 0.15956904 -3.25623784 0.15956904 0 0 Z " fill="#FDE78C" transform="translate(24.316650390625,47.886474609375)"/>
<path d="M0 0 C0.99 0 1.98 0 3 0 C4.67613728 3.43296095 6.33925697 6.87206883 8 10.3125 C8.47695313 11.28896484 8.95390625 12.26542969 9.4453125 13.27148438 C9.89648438 14.20927734 10.34765625 15.14707031 10.8125 16.11328125 C11.23144531 16.97735596 11.65039062 17.84143066 12.08203125 18.73168945 C13 21 13 21 13 24 C5.39845954 23.67021516 -0.97319219 21.87217429 -8 19 C-6.60121198 14.53202662 -4.86369228 10.36177921 -2.875 6.125 C-2.33617187 4.97257812 -1.79734375 3.82015625 -1.2421875 2.6328125 C-0.62730469 1.32957031 -0.62730469 1.32957031 0 0 Z " fill="#BC6344" transform="translate(45,104)"/>
<path d="M0 0 C0.66 0 1.32 0 2 0 C3.33957921 2.78871177 4.67058435 5.58143062 6 8.375 C6.3815625 9.1690625 6.763125 9.963125 7.15625 10.78125 C7.5171875 11.54179688 7.878125 12.30234375 8.25 13.0859375 C8.75273438 14.1385376 8.75273438 14.1385376 9.265625 15.21240234 C10 17 10 17 10 19 C2.97319219 21.87217429 -3.39845954 23.67021516 -11 24 C-8.56705598 15.33263693 -4.34217123 7.82828494 0 0 Z " fill="#D1714C" transform="translate(81,104)"/>
<path d="M0 0 C2.31 0 4.62 0 7 0 C7 8.58 7 17.16 7 26 C4.69 26 2.38 26 0 26 C-2.53054337 23.46945663 -2.25683229 22.56451118 -2.265625 19.0625 C-2.26820312 18.08539063 -2.27078125 17.10828125 -2.2734375 16.1015625 C-2.26570313 15.07804687 -2.25796875 14.05453125 -2.25 13 C-2.25773437 11.97648437 -2.26546875 10.95296875 -2.2734375 9.8984375 C-2.27085938 8.92132813 -2.26828125 7.94421875 -2.265625 6.9375 C-2.26336914 6.03902344 -2.26111328 5.14054687 -2.25878906 4.21484375 C-2 2 -2 2 0 0 Z " fill="#E48A6B" transform="translate(97,84)"/>
<path d="M0 0 C6.36763266 0.3946439 11.26354935 3.62018778 16.6875 6.6875 C17.61755859 7.20505859 18.54761719 7.72261719 19.50585938 8.25585938 C21.38325494 9.30059163 23.25810751 10.34990696 25.13037109 11.40380859 C29.01965564 13.56716935 32.95415417 15.64405738 36.89379883 17.71411133 C39 19 39 19 40 21 C33.96963601 22.84583257 30.31652803 20.76197326 25 18.0625 C24.17000488 17.65225586 23.34000977 17.24201172 22.48486328 16.81933594 C19.97849507 15.56735658 17.48799285 14.28804942 15 13 C14.26362305 12.62536621 13.52724609 12.25073242 12.76855469 11.86474609 C10.79048043 10.84981552 8.83023866 9.80813829 6.875 8.75 C5.75867188 8.14671875 4.64234375 7.5434375 3.4921875 6.921875 C1 5 1 5 0.1328125 2.265625 C0.08898437 1.51796875 0.04515625 0.7703125 0 0 Z " fill="#CC6E4B" transform="translate(19,0)"/>
<path d="M0 0 C1 1 1 1 1.25 3.375 C1 6 1 6 -2 9 C19.45 9.33 40.9 9.66 63 10 C63 10.33 63 10.66 63 11 C35.94 11 8.88 11 -19 11 C-19 10.67 -19 10.34 -19 10 C-16.36 9.67 -13.72 9.34 -11 9 C-11.33 8.67 -11.66 8.34 -12 8 C-12.375 5.6875 -12.375 5.6875 -12 3 C-8.1833587 -1.39492029 -5.48315427 -1.37078857 0 0 Z " fill="#BD8A76" transform="translate(42,37)"/>
<path d="M0 0 C1.98 0.495 1.98 0.495 4 1 C4 11.23 4 21.46 4 32 C2.35 32 0.7 32 -1 32 C-1.02465504 27.60343827 -1.04283842 23.2069128 -1.05493164 18.81030273 C-1.05997121 17.31355082 -1.06680287 15.81680384 -1.07543945 14.32006836 C-1.08752159 12.17300193 -1.09323191 10.02600038 -1.09765625 7.87890625 C-1.10289307 6.5854126 -1.10812988 5.29191895 -1.11352539 3.95922852 C-1 1 -1 1 0 0 Z " fill="#E1896B" transform="translate(43,67)"/>
<path d="M0 0 C0.99 0 1.98 0 3 0 C3.19464844 0.74894531 3.38929687 1.49789063 3.58984375 2.26953125 C5.52406555 6.01474188 7.81413899 6.85652234 11.5625 8.6875 C17.912 11.824 17.912 11.824 19 14 C18.67 14.66 18.34 15.32 18 16 C10.60869995 15.67149778 3.24546655 12.24546655 -2 7 C-2.25 4.5 -2.25 4.5 -2 2 C-1.34 1.34 -0.68 0.68 0 0 Z " fill="#BB6243" transform="translate(16,0)"/>
<path d="M0 0 C1.32 0.33 2.64 0.66 4 1 C4 11.23 4 21.46 4 32 C2.68 32 1.36 32 0 32 C0 21.44 0 10.88 0 0 Z " fill="#E48B6E" transform="translate(78,67)"/>
<path d="M0 0 C1.65 0.33 3.3 0.66 5 1 C4.73783691 1.54938232 4.47567383 2.09876465 4.20556641 2.66479492 C3.01043932 5.17160174 1.81769989 7.67953751 0.625 10.1875 C0.00625 11.48397461 0.00625 11.48397461 -0.625 12.80664062 C-1.02460937 13.64775391 -1.42421875 14.48886719 -1.8359375 15.35546875 C-2.20251465 16.12528076 -2.5690918 16.89509277 -2.94677734 17.68823242 C-4.04443886 20.09754093 -5.03527336 22.53479932 -6 25 C-7.65 25 -9.3 25 -11 25 C-9.33913088 19.43335076 -6.88928264 14.34213647 -4.375 9.125 C-3.95476562 8.24585937 -3.53453125 7.36671875 -3.1015625 6.4609375 C-2.0708308 4.30577122 -1.03690574 2.15220078 0 0 Z " fill="#E38869" transform="translate(76,103)"/>
<path d="M0 0 C3.5 0.8125 3.5 0.8125 5.4375 2.0625 C6.89100294 4.45650485 6.85256314 6.0625075 6.5 8.8125 C4.5 10.8125 4.5 10.8125 1.6875 11.1875 C-2.2614494 10.72291772 -3.82308441 9.72561402 -6.5 6.8125 C-7 4.1875 -7 4.1875 -6.5 1.8125 C-3.5 -0.1875 -3.5 -0.1875 0 0 Z " fill="#CD6F4B" transform="translate(91.5,36.1875)"/>
<path d="M0 0 C8.58 0 17.16 0 26 0 C26 1.32 26 2.64 26 4 C17.42 4 8.84 4 0 4 C0 2.68 0 1.36 0 0 Z " fill="#A5533A" transform="translate(51,69)"/>
<path d="M0 0 C4.98599117 0.53800209 8.51835705 2.11744529 12.875 4.5625 C14.02742188 5.20316406 15.17984375 5.84382812 16.3671875 6.50390625 C17.67042969 7.24447266 17.67042969 7.24447266 19 8 C18.34 9.65 17.68 11.3 17 13 C13.31037612 11.57936015 9.76938862 9.98999768 6.25 8.1875 C5.28578125 7.70667969 4.3215625 7.22585937 3.328125 6.73046875 C1 5 1 5 0.171875 2.30078125 C0.11515625 1.54152344 0.0584375 0.78226562 0 0 Z " fill="#D26F4A" transform="translate(19,0)"/>
<path d="M0 0 C3.3 0 6.6 0 10 0 C11.33819498 2.6226232 12.6707151 5.24786599 14 7.875 C14.3815625 8.62136719 14.763125 9.36773437 15.15625 10.13671875 C15.5171875 10.85214844 15.878125 11.56757812 16.25 12.3046875 C16.58515625 12.96452637 16.9203125 13.62436523 17.265625 14.30419922 C18 16 18 16 18 18 C16.68 18.33 15.36 18.66 14 19 C12.66180502 16.3773768 11.3292849 13.75213401 10 11.125 C9.6184375 10.37863281 9.236875 9.63226563 8.84375 8.86328125 C8.4828125 8.14785156 8.121875 7.43242188 7.75 6.6953125 C7.24726562 5.7055542 7.24726562 5.7055542 6.734375 4.69580078 C6 3 6 3 6 1 C4.02 1 2.04 1 0 1 C0 0.67 0 0.34 0 0 Z " fill="#EC9B85" transform="translate(77,103)"/>
<path d="M0 0 C1.32 0.33 2.64 0.66 4 1 C2.10463724 7.51819877 -0.5178994 13.17814801 -4 19 C-5.32 18.67 -6.64 18.34 -8 18 C-6.65150163 13.64029169 -4.95092154 9.68658562 -2.875 5.625 C-2.33617187 4.56539063 -1.79734375 3.50578125 -1.2421875 2.4140625 C-0.83226562 1.61742188 -0.42234375 0.82078125 0 0 Z " fill="#E18768" transform="translate(41,103)"/>
<path d="M0 0 C6.6 0 13.2 0 20 0 C20 1.32 20 2.64 20 4 C13.4 4 6.8 4 0 4 C0 2.68 0 1.36 0 0 Z " fill="#A3523A" transform="translate(22,69)"/>
<path d="M0 0 C2 2 2 2 2 6 C0.39125 5.938125 0.39125 5.938125 -1.25 5.875 C-4.76581294 5.99219376 -6.07712211 6.32978407 -9 8 C-9.99 8 -10.98 8 -12 8 C-12.33 6.68 -12.66 5.36 -13 4 C-8.52593557 0.50804727 -5.69089033 -0.65664119 0 0 Z " fill="#D2704B" transform="translate(112,0)"/>
<path d="M0 0 C5.94 0 11.88 0 18 0 C18 1.32 18 2.64 18 4 C12.06 4 6.12 4 0 4 C0 2.68 0 1.36 0 0 Z " fill="#BA6143" transform="translate(86,73)"/>
<path d="M0 0 C-3.42388092 3.82669043 -6.00724943 5.72278474 -11 7 C-11.33 5.35 -11.66 3.7 -12 2 C-7.72424275 -1.23921004 -5.16347713 -1.11369115 0 0 Z " fill="#E48A6B" transform="translate(114,6)"/>
<path d="M0 0 C3.63 0 7.26 0 11 0 C11.33 1.32 11.66 2.64 12 4 C8.04 4 4.08 4 0 4 C0 2.68 0 1.36 0 0 Z " fill="#F6B6A8" transform="translate(76,99)"/>
<path d="M0 0 C3.63 0 7.26 0 11 0 C11 1.32 11 2.64 11 4 C7.37 4 3.74 4 0 4 C0 2.68 0 1.36 0 0 Z " fill="#F6B6A9" transform="translate(41,99)"/>
<path d="M0 0 C2.97 1.32 5.94 2.64 9 4 C8.34 5.65 7.68 7.3 7 9 C3.54074837 7.7508258 0.85306797 6.32472205 -2 4 C-1.34 2.68 -0.68 1.36 0 0 Z " fill="#E3896A" transform="translate(29,4)"/>
<path d="M0 0 C0.6875 2.0625 0.6875 2.0625 1 4 C-2.13498292 5.85776765 -4.37471432 6.20140476 -8 6 C-8.33 4.68 -8.66 3.36 -9 2 C-3.375 -1.125 -3.375 -1.125 0 0 Z " fill="#ED9E8A" transform="translate(102,10)"/>
<path d="M0 0 C5.75 1.625 5.75 1.625 8 5 C7.67 5.66 7.34 6.32 7 7 C0.25 6.125 0.25 6.125 -2 5 C-1.34 3.35 -0.68 1.7 0 0 Z " fill="#D0704B" transform="translate(27,9)"/>
<path d="M0 0 C0.598125 0.20625 1.19625 0.4125 1.8125 0.625 C1.4825 2.275 1.1525 3.925 0.8125 5.625 C-0.8375 5.955 -2.4875 6.285 -4.1875 6.625 C-4.5175 4.975 -4.8475 3.325 -5.1875 1.625 C-2.1875 -0.375 -2.1875 -0.375 0 0 Z " fill="#ED9C86" transform="translate(39.1875,38.375)"/>
<path d="M0 0 C1.65 0.33 3.3 0.66 5 1 C5.33 2.32 5.66 3.64 6 5 C3.625 5.625 3.625 5.625 1 6 C0.34 5.34 -0.32 4.68 -1 4 C-0.625 1.875 -0.625 1.875 0 0 Z " fill="#E38969" transform="translate(90,38)"/>
<path d="M0 0 C4.31392226 0.4793247 6.16569547 1.7457985 9 5 C7.375 5.6875 7.375 5.6875 5 6 C1.75 4.5625 1.75 4.5625 -1 3 C-0.67 2.01 -0.34 1.02 0 0 Z " fill="#CA6D4A" transform="translate(75,30)"/>
</svg>
