<?xml version="1.0" encoding="UTF-8"?>
<svg version="1.1" xmlns="http://www.w3.org/2000/svg" width="128" height="128">
<path d="M0 0 C14.66593153 10.19568513 25.60840641 23.74932626 29.74780273 41.46484375 C31.86603529 54.29763126 31.44584138 68.79991362 26.125 80.75 C25.76277344 81.62269531 25.40054688 82.49539062 25.02734375 83.39453125 C17.33536706 100.36902897 3.07751411 111.05081733 -13.734375 117.91796875 C-30.02500275 122.93228047 -49.3872321 120.84818754 -64.375 113.25 C-80.79373216 104.34772371 -91.48385123 89.95575147 -96.98828125 72.1484375 C-100.09059644 59.05712927 -99.35177869 43.05030624 -93.875 30.75 C-93.51277344 29.87730469 -93.15054688 29.00460938 -92.77734375 28.10546875 C-85.8549626 12.82929883 -73.23462165 1.78063924 -57.87109375 -4.47265625 C-38.93392049 -11.50790437 -17.48941603 -10.43527048 0 0 Z " fill="#3ECB4E" transform="translate(97.875,8.25)"/>
<path d="M0 0 C7.24496662 3.22730331 13.03718214 9.23018615 17 16 C18.2224093 17.44244751 18.2224093 17.44244751 21.875 17.25 C24.98407145 17.21298913 24.98407145 17.21298913 27.75 15.9375 C28.1625 15.298125 28.575 14.65875 29 14 C30.051875 12.39125 30.051875 12.39125 31.125 10.75 C33.12954652 7.16170872 33.66742579 4.07403404 34 0 C36 0 36 0 38 1.875 C40.34123357 5.53317745 40.88399457 8.54718751 41.5078125 12.79296875 C41.83611642 15.19361177 41.83611642 15.19361177 44 17 C46.69162425 17.22552238 49.24669744 17.3243329 51.9375 17.3125 C53.03094727 17.33666992 53.03094727 17.33666992 54.14648438 17.36132812 C58.28275123 17.37260423 58.28275123 17.37260423 61.98046875 15.71875 C63.78494968 12.67671318 63.49689642 9.38271794 63 6 C61.6351132 2.59758176 61.6351132 2.59758176 60 0 C63.7363697 1.55821454 66.10996681 3.86581298 68.94921875 6.71875 C69.87927734 7.65074219 70.80933594 8.58273438 71.76757812 9.54296875 C72.24654541 10.02813965 72.7255127 10.51331055 73.21899414 11.01318359 C74.68778598 12.50028955 76.16448104 13.97917958 77.64257812 15.45703125 C86.11294102 23.98044444 86.29552381 27.79045417 86.3190918 39.62158203 C86.22453801 47.81909046 85.36227669 54.44865728 82 62 C81.63777344 62.87269531 81.27554688 63.74539062 80.90234375 64.64453125 C73.73710111 80.45664296 60.63655752 91.2258157 45 98 C37.48853813 100.73227141 28.93177857 102.65371088 21 101 C16.79134994 98.24194795 13.60098092 94.79059283 10.25 91.0625 C9.35023437 90.11697266 8.45046875 89.17144531 7.5234375 88.19726562 C1 81.28222359 1 81.28222359 1 80 C15.19 80 29.38 80 44 80 C44 77.69 44 75.38 44 73 C45.50390625 71.35546875 45.50390625 71.35546875 47.5625 70.1875 C55.94488981 64.57945867 60.58019989 55.62601803 63 46 C63.53806745 42.33384551 63.85679947 38.70173375 64 35 C61.03 35 58.06 35 55 35 C54.31640625 32.98177083 53.6328125 30.96354167 52.94921875 28.9453125 C52.03664453 26.66005095 52.03664453 26.66005095 49 25 C46.53590243 24.70313229 46.53590243 24.70313229 43.75 24.75708008 C42.67878906 24.75400345 41.60757813 24.75092682 40.50390625 24.74775696 C39.34761719 24.75494247 38.19132812 24.76212799 37 24.76953125 C35.81277344 24.76998947 34.62554687 24.77044769 33.40234375 24.7709198 C30.89061484 24.77394267 28.37888782 24.78182999 25.8671875 24.79418945 C22.01555767 24.81242634 18.16416846 24.81469927 14.3125 24.81445312 C11.87499791 24.81936906 9.43749746 24.82519771 7 24.83203125 C5.84371094 24.83314407 4.68742187 24.8342569 3.49609375 24.83540344 C1.88927734 24.84497322 1.88927734 24.84497322 0.25 24.85473633 C-1.16539063 24.86045403 -1.16539063 24.86045403 -2.609375 24.86628723 C-5.147642 24.90323889 -5.147642 24.90323889 -8 26 C-9.82421875 24.85546875 -9.82421875 24.85546875 -11.6875 23.1875 C-12.31011719 22.64480469 -12.93273437 22.10210937 -13.57421875 21.54296875 C-15 20 -15 20 -15 18 C-13.55367187 17.96132813 -13.55367187 17.96132813 -12.078125 17.921875 C-10.81484375 17.86515625 -9.5515625 17.8084375 -8.25 17.75 C-6.99703125 17.70359375 -5.7440625 17.6571875 -4.453125 17.609375 C-0.55408508 16.92130913 0.69656423 16.16650972 3 13 C3.67875514 7.76388889 2.64202986 4.51346767 0 0 Z " fill="#40A95C" transform="translate(42,27)"/>
<path d="M0 0 C27.72 0 55.44 0 84 0 C84 13.22953415 81.51348514 23.44620348 72 33 C70.73284688 33.91013776 69.44189387 34.78844856 68.125 35.625 C64.15422887 38.06549237 64.15422887 38.06549237 64 45 C49.48 45 34.96 45 20 45 C19.67 42.69 19.34 40.38 19 38 C17.4581173 36.26777137 17.4581173 36.26777137 15.375 35.1875 C7.30068391 29.717802 1.91387029 20.52180187 0 11 C0 7.37 0 3.74 0 0 Z " fill="#9E3C5B" transform="translate(22,62)"/>
<path d="M0 0 C13.86 0 27.72 0 42 0 C42 14.52 42 29.04 42 44 C34.74 44 27.48 44 20 44 C19.67 42.02 19.34 40.04 19 38 C17.43520346 36.37021272 17.43520346 36.37021272 15.375 35.25 C7.33441678 29.70228577 1.91900778 20.5473617 0 11 C0 7.37 0 3.74 0 0 Z " fill="#FE3A33" transform="translate(22,62)"/>
<path d="M0 0 C1.76947998 -0.00717545 1.76947998 -0.00717545 3.57470703 -0.01449585 C6.06609431 -0.01789477 8.55752619 -0.00869315 11.04882812 0.01220703 C14.86168899 0.03896907 18.67160568 0.01245507 22.484375 -0.01953125 C24.9062565 -0.01622716 27.32813616 -0.00982094 29.75 0 C31.45953857 -0.01518173 31.45953857 -0.01518173 33.20361328 -0.03067017 C41.02104942 0.08506208 41.02104942 0.08506208 45.0703125 2.83056641 C46.875 5.6640625 46.875 5.6640625 47.875 11.6640625 C26.425 11.6640625 4.975 11.6640625 -17.125 11.6640625 C-17.125 5.6640625 -17.125 5.6640625 -15.3828125 2.83056641 C-10.42975229 -0.46330772 -5.82597348 -0.05173815 0 0 Z " fill="#F7E574" transform="translate(49.125,50.3359375)"/>
<path d="M0 0 C3.73258903 0.08790518 4.08952379 0.40637829 7 3.1875 C7.721875 4.280625 8.44375 5.37375 9.1875 6.5 C9.785625 7.28375 10.38375 8.0675 11 8.875 C12.7505561 12.74465033 12.65930852 15.25372331 12.1875 19.5 C10.66015625 21.7109375 10.66015625 21.7109375 8.1875 23.5 C5.35253573 23.92819773 3.01090346 24.10597632 0.1875 24.0625 C-0.87984375 24.09827148 -0.87984375 24.09827148 -1.96875 24.13476562 C-5.7862295 24.12408238 -7.46850093 23.82598008 -10.2734375 21.16796875 C-12.3837297 17.50977187 -12.50984458 15.68406746 -11.8125 11.5 C-6.04578023 0.79288921 -6.04578023 0.79288921 0 0 Z " fill="#FAF374" transform="translate(93.8125,21.5)"/>
<path d="M0 0 C0.7115625 -0.01546875 1.423125 -0.0309375 2.15625 -0.046875 C5.61419348 -0.02106945 7.6433096 0.23899322 10.4609375 2.30078125 C12.30666817 4.93820858 12.67566269 7.06236618 12.53125 10.26953125 C11.3022786 15.42940383 7.69268367 19.80731633 4 23.5 C0.91916839 23.90404349 -1.04531559 24.15343982 -4 23.5 C-6.8125 20.8125 -6.8125 20.8125 -9 17.5 C-9.598125 16.71625 -10.19625 15.9325 -10.8125 15.125 C-12.5630561 11.25534967 -12.47180852 8.74627669 -12 4.5 C-8.82517583 -0.10390103 -5.20648498 -0.11318446 0 0 Z " fill="#FBFABC" transform="translate(64,21.5)"/>
<path d="M0 0 C3.64397646 0.82007298 5.02993426 3.47189152 6.99609375 6.44921875 C7.89328125 7.65578125 7.89328125 7.65578125 8.80859375 8.88671875 C10.42159124 12.36739754 10.53812209 14.65502035 9.99609375 18.44921875 C7.27879148 21.99150842 5.81588094 23.30714584 1.3671875 24.078125 C0.06910156 24.05621094 -1.22898437 24.03429687 -2.56640625 24.01171875 C-3.86707031 24.01300781 -5.16773438 24.01429687 -6.5078125 24.015625 C-10.00390625 23.44921875 -10.00390625 23.44921875 -12.43359375 21.64453125 C-14.32539174 18.99977884 -14.62246468 16.91091647 -14.46484375 13.6796875 C-12.82325456 5.73606524 -8.57499931 -0.20454127 0 0 Z " fill="#FBF9BC" transform="translate(36.00390625,21.55078125)"/>
<path d="M0 0 C1.7334668 0.00773437 1.7334668 0.00773437 3.50195312 0.015625 C5.3050293 0.0465625 5.3050293 0.0465625 7.14453125 0.078125 C8.35818359 0.08328125 9.57183594 0.0884375 10.82226562 0.09375 C19.80306633 0.17416008 19.80306633 0.17416008 20.95703125 1.328125 C20.95703125 4.298125 20.95703125 7.268125 20.95703125 10.328125 C10.39703125 10.328125 -0.16296875 10.328125 -11.04296875 10.328125 C-10.04296875 3.328125 -10.04296875 3.328125 -8.3581543 1.41113281 C-5.4164612 0.03505451 -3.24537185 -0.02856105 0 0 Z " fill="#FDFABD" transform="translate(43.04296875,50.671875)"/>
<path d="M0 0 C8 0 8 0 10.5 1.5 C12.63591156 5.05985259 12.94386103 8.03717169 12 12 C9.85248102 16.10516585 7.2752327 19.7247673 4 23 C2.68 23 1.36 23 0 23 C0 15.41 0 7.82 0 0 Z " fill="#FBF374" transform="translate(64,22)"/>
</svg>
