<?xml version="1.0" encoding="UTF-8"?>
<svg version="1.1" xmlns="http://www.w3.org/2000/svg" width="128" height="128">
<path d="M0 0 C13.05504691 10.82221146 20.58254911 26.32502331 22.34765625 43.0390625 C23.68880934 59.39171855 18.3176945 75.1454792 8.34765625 88.0390625 C6.42553304 90.15821428 4.44717626 92.0895082 2.34765625 94.0390625 C4.04535156 94.11253906 4.04535156 94.11253906 5.77734375 94.1875 C7.25913964 94.26252764 8.74090925 94.33807547 10.22265625 94.4140625 C10.96902344 94.445 11.71539062 94.4759375 12.484375 94.5078125 C18.12109375 94.8125 18.12109375 94.8125 20.34765625 97.0390625 C20.54617727 99.74829051 20.62605102 102.33209429 20.59765625 105.0390625 C20.60925781 106.14507812 20.60925781 106.14507812 20.62109375 107.2734375 C20.60097585 112.7857429 20.60097585 112.7857429 18.34765625 115.0390625 C16.29553223 115.29074478 16.29553223 115.29074478 13.71679688 115.29302979 C12.740896 115.29866943 11.76499512 115.30430908 10.75952148 115.31011963 C9.68516846 115.30607117 8.61081543 115.30202271 7.50390625 115.29785156 C6.3754126 115.3013562 5.24691895 115.30486084 4.08422852 115.30847168 C0.33864261 115.31730381 -3.40675578 115.31143454 -7.15234375 115.3046875 C-9.74544308 115.30603372 -12.33854216 115.30797389 -14.93164062 115.31048584 C-20.37242257 115.31343912 -25.8131335 115.3093225 -31.25390625 115.29980469 C-37.54894102 115.28891981 -43.84384624 115.29244529 -50.13887787 115.3034575 C-56.18838801 115.31361764 -62.23783464 115.31255423 -68.28735352 115.30669403 C-70.8646649 115.30535601 -73.44197956 115.30701056 -76.01928711 115.31165314 C-79.61581287 115.31670926 -83.21208683 115.30902084 -86.80859375 115.29785156 C-88.42012329 115.30392426 -88.42012329 115.30392426 -90.06420898 115.31011963 C-91.04010986 115.30447998 -92.01601074 115.29884033 -93.02148438 115.29302979 C-93.87246704 115.29227573 -94.72344971 115.29152168 -95.60021973 115.29074478 C-97.65234375 115.0390625 -97.65234375 115.0390625 -99.65234375 113.0390625 C-99.85086477 110.32983449 -99.93073852 107.74603071 -99.90234375 105.0390625 C-99.91007812 104.30171875 -99.9178125 103.564375 -99.92578125 102.8046875 C-99.90566335 97.2923821 -99.90566335 97.2923821 -97.65234375 95.0390625 C-94.91799413 94.7326766 -92.26954554 94.5277289 -89.52734375 94.4140625 C-88.77324219 94.37539062 -88.01914063 94.33671875 -87.2421875 94.296875 C-85.37931191 94.20255219 -83.5158612 94.11971588 -81.65234375 94.0390625 C-82.08804688 93.63816406 -82.52375 93.23726563 -82.97265625 92.82421875 C-95.30930858 81.04832334 -101.48859481 65.61394529 -101.90234375 48.6015625 C-101.44775844 30.77171646 -94.94974025 15.98134646 -82.71875 2.984375 C-59.45146369 -18.78335648 -24.86713617 -18.3848341 0 0 Z " fill="#D8301D" transform="translate(103.65234375,12.9609375)"/>
<path d="M0 0 C3.06761169 -0.38095093 3.06761169 -0.38095093 7.06420898 -0.38818359 C7.79119995 -0.39344055 8.51819092 -0.39869751 9.26721191 -0.40411377 C11.677056 -0.41734743 14.08624262 -0.40856332 16.49609375 -0.3984375 C18.16756823 -0.4004575 19.83904185 -0.40336831 21.51051331 -0.40713501 C25.01694107 -0.41156309 28.52313983 -0.40511271 32.02954102 -0.39111328 C36.52683749 -0.37403417 41.0235964 -0.38385121 45.52087307 -0.40183067 C48.97382157 -0.41266681 52.42664247 -0.40922275 55.8795948 -0.4014473 C57.53781256 -0.39944413 59.19604185 -0.40190867 60.85424614 -0.40888596 C63.17194199 -0.41649636 65.48876567 -0.40490236 67.80639648 -0.38818359 C69.12606918 -0.38579681 70.44574188 -0.38341003 71.80540466 -0.38095093 C75 0 75 0 76.92831421 1.40544128 C78.28028587 3.41703668 78.34735764 4.60047776 78.29296875 7.01171875 C78.28330078 7.76904297 78.27363281 8.52636719 78.26367188 9.30664062 C78.23853516 10.09232422 78.21339844 10.87800781 78.1875 11.6875 C78.16719727 12.88342773 78.16719727 12.88342773 78.14648438 14.10351562 C78.11117089 16.06929967 78.05736447 18.03473582 78 20 C79.27617188 19.97679688 80.55234375 19.95359375 81.8671875 19.9296875 C83.5364525 19.91093171 85.2057238 19.89273131 86.875 19.875 C87.71675781 19.85824219 88.55851562 19.84148437 89.42578125 19.82421875 C90.63427734 19.81455078 90.63427734 19.81455078 91.8671875 19.8046875 C92.61081543 19.79421387 93.35444336 19.78374023 94.12060547 19.77294922 C96 20 96 20 98 22 C98.19852102 24.70922801 98.27839477 27.29303179 98.25 30 C98.26160156 31.10601562 98.26160156 31.10601562 98.2734375 32.234375 C98.2533196 37.7466804 98.2533196 37.7466804 96 40 C93.94787598 40.25168228 93.94787598 40.25168228 91.36914062 40.25396729 C90.39323975 40.25960693 89.41733887 40.26524658 88.41186523 40.27105713 C87.33751221 40.26700867 86.26315918 40.26296021 85.15625 40.25878906 C84.02775635 40.2622937 82.8992627 40.26579834 81.73657227 40.26940918 C77.99098636 40.27824131 74.24558797 40.27237204 70.5 40.265625 C67.90690067 40.26697122 65.31380159 40.26891139 62.72070312 40.27142334 C57.27992118 40.27437662 51.83921025 40.27026 46.3984375 40.26074219 C40.10340273 40.24985731 33.80849751 40.25338279 27.51346588 40.264395 C21.46395574 40.27455514 15.41450911 40.27349173 9.36499023 40.26763153 C6.78767885 40.26629351 4.21036419 40.26794806 1.63305664 40.27259064 C-1.96346912 40.27764676 -5.55974308 40.26995834 -9.15625 40.25878906 C-10.76777954 40.26486176 -10.76777954 40.26486176 -12.41186523 40.27105713 C-13.38776611 40.26541748 -14.36366699 40.25977783 -15.36914062 40.25396729 C-16.22012329 40.25321323 -17.07110596 40.25245918 -17.94787598 40.25168228 C-20 40 -20 40 -22 38 C-22.19852102 35.29077199 -22.27839477 32.70696821 -22.25 30 C-22.25773437 29.26265625 -22.26546875 28.5253125 -22.2734375 27.765625 C-22.2533196 22.2533196 -22.2533196 22.2533196 -20 20 C-18.12060547 19.77294922 -18.12060547 19.77294922 -15.8671875 19.8046875 C-15.06152344 19.81113281 -14.25585938 19.81757812 -13.42578125 19.82421875 C-12.16314453 19.84935547 -12.16314453 19.84935547 -10.875 19.875 C-9.60076172 19.88853516 -9.60076172 19.88853516 -8.30078125 19.90234375 C-6.20040116 19.92594353 -4.10016556 19.96181517 -2 20 C-2.02320312 18.80761719 -2.04640625 17.61523438 -2.0703125 16.38671875 C-2.08907178 14.82031876 -2.10727181 13.253912 -2.125 11.6875 C-2.14175781 10.90181641 -2.15851562 10.11613281 -2.17578125 9.30664062 C-2.18222656 8.54931641 -2.18867188 7.79199219 -2.1953125 7.01171875 C-2.20578613 6.31522217 -2.21625977 5.61872559 -2.22705078 4.90112305 C-2 3 -2 3 0 0 Z " fill="#9E3B31" transform="translate(26,88)"/>
<path d="M0 0 C-0.020625 0.88558594 -0.04125 1.77117188 -0.0625 2.68359375 C0.08577453 11.58933275 1.83162772 18.04732238 6.02929688 25.92358398 C8.66080271 30.90127354 9.96346502 35.45372381 11 41 C12.32 38.03 13.64 35.06 15 32 C15.99 32.33 16.98 32.66 18 33 C22.05300252 41.55633865 22.42149298 51.81610398 20.30859375 61.0078125 C18.33522308 66.40774731 15.51990347 71.34136382 11 75 C7.66042143 76.01026832 4.47051835 75.98356969 1 75.9296875 C-0.43085937 75.93973312 -0.43085937 75.93973312 -1.890625 75.94998169 C-3.90107468 75.95473069 -5.91163346 75.94191368 -7.921875 75.91259766 C-10.99204468 75.87509717 -14.05505203 75.91226118 -17.125 75.95703125 C-19.08334908 75.95240532 -21.04169372 75.94343617 -23 75.9296875 C-23.91265625 75.94385712 -24.8253125 75.95802673 -25.765625 75.97262573 C-31.99563331 75.81298468 -31.99563331 75.81298468 -34.90176392 73.46061707 C-41.90851663 65.41264583 -43.91648089 56.71334597 -43.45703125 46.203125 C-42.90688342 39.57655567 -41.10070164 32.88317337 -38 27 C-35.828125 26.08984375 -35.828125 26.08984375 -34 26 C-33.34 27.32 -32.68 28.64 -32 30 C-31.8040625 29.40574219 -31.608125 28.81148437 -31.40625 28.19921875 C-27.22192817 16.60215437 -20.67542776 8.22733286 -10 2 C-9.36578125 1.60941406 -8.7315625 1.21882812 -8.078125 0.81640625 C-5.3256003 -0.26494274 -2.92781668 -0.13308258 0 0 Z " fill="#FA8B23" transform="translate(75,13)"/>
<path d="M0 0 C13.05504691 10.82221146 20.58254911 26.32502331 22.34765625 43.0390625 C23.68577958 59.35477677 18.3477501 75.19556847 8.34765625 88.0390625 C6.12979863 90.50284273 3.86681657 92.88077363 1.34765625 95.0390625 C1.01765625 95.0390625 0.68765625 95.0390625 0.34765625 95.0390625 C-1.81787109 75.8643022 -1.81787109 75.8643022 3.7109375 68.40234375 C10.48255519 58.62470961 10.71662136 45.66152501 8.6875 34.36328125 C5.31222229 20.99367473 -1.86831703 10.11949741 -13.58984375 2.7890625 C-25.73733765 -4.11292267 -39.01243507 -5.82953017 -52.71484375 -2.8984375 C-65.63244338 0.75330137 -75.41644433 8.52630759 -82.46484375 19.7890625 C-88.6864096 31.13844861 -91.02926619 44.35380139 -87.703125 57.046875 C-86.07882533 62.43330058 -84.2423597 67.25853811 -80.96484375 71.85546875 C-77.9110635 76.5778505 -78.25947491 80.60280184 -78.83984375 86.0390625 C-78.91009766 86.90917969 -78.98035156 87.77929688 -79.05273438 88.67578125 C-79.22773085 90.79907182 -79.43654459 92.91953016 -79.65234375 95.0390625 C-91.71144122 85.02226495 -98.26187811 72.99139071 -101.33984375 57.6015625 C-102.9887848 38.80363458 -98.82890189 22.58471531 -86.9296875 7.65625 C-64.37736411 -18.26151444 -26.85560481 -19.85495378 0 0 Z " fill="#F84937" transform="translate(103.65234375,12.9609375)"/>
<path d="M0 0 C-0.020625 0.88558594 -0.04125 1.77117188 -0.0625 2.68359375 C0.08577453 11.58933275 1.83162772 18.04732238 6.02929688 25.92358398 C8.66080271 30.90127354 9.96346502 35.45372381 11 41 C12.32 38.03 13.64 35.06 15 32 C15.99 32.33 16.98 32.66 18 33 C22.05300252 41.55633865 22.42149298 51.81610398 20.30859375 61.0078125 C18.37965859 66.2861539 15.55331106 71.55153648 11 75 C7.625 75.4375 7.625 75.4375 5 75 C5.34933594 74.45730469 5.69867188 73.91460937 6.05859375 73.35546875 C6.51363281 72.64003906 6.96867187 71.92460938 7.4375 71.1875 C7.88996094 70.47980469 8.34242187 69.77210937 8.80859375 69.04296875 C11.19103661 64.9576651 11.3004155 60.91401639 11.5625 56.3125 C11.60568359 55.61060547 11.64886719 54.90871094 11.69335938 54.18554688 C11.7991736 52.45724794 11.90006581 50.7286489 12 49 C11.34 49 10.68 49 10 49 C9.731875 49.94875 9.46375 50.8975 9.1875 51.875 C8 55 8 55 5 57 C4.8040625 56.18660156 4.608125 55.37320313 4.40625 54.53515625 C2.32611488 46.56429365 -0.43380508 39.43082839 -4.26953125 32.12719727 C-6.85160091 27.02650097 -7.62519921 22.71151647 -8 17 C-13.18470207 18.37242114 -16.10983497 21.66475245 -19 26 C-21.68438349 31.3165162 -22.63662058 36.03955247 -23.1875 41.9375 C-23.26935547 42.71673828 -23.35121094 43.49597656 -23.43554688 44.29882812 C-23.63364171 46.19820797 -23.81823841 48.09898762 -24 50 C-26.58377644 47.45893061 -28.89144281 44.95198007 -31 42 C-32.6252695 47.0194066 -33.41782084 51.63936096 -33.4375 56.9375 C-33.44064209 57.6382666 -33.44378418 58.3390332 -33.44702148 59.06103516 C-33.30973019 64.99284693 -31.80267502 68.58640342 -28 73 C-27.67 73.66 -27.34 74.32 -27 75 C-29.625 75.4375 -29.625 75.4375 -33 75 C-38.38297721 70.92318638 -41.49256209 64.43398081 -43 58 C-44.22150929 47.26898379 -43.10401745 36.68420153 -38 27 C-35.828125 26.08984375 -35.828125 26.08984375 -34 26 C-33.34 27.32 -32.68 28.64 -32 30 C-31.8040625 29.40574219 -31.608125 28.81148437 -31.40625 28.19921875 C-27.22192817 16.60215437 -20.67542776 8.22733286 -10 2 C-9.36578125 1.60941406 -8.7315625 1.21882812 -8.078125 0.81640625 C-5.3256003 -0.26494274 -2.92781668 -0.13308258 0 0 Z " fill="#FBAF31" transform="translate(75,13)"/>
<path d="M0 0 C2 2 2 2 2.1953125 5.9140625 C2.18200376 7.48449351 2.15813602 9.05486221 2.125 10.625 C2.11597656 11.42679688 2.10695313 12.22859375 2.09765625 13.0546875 C2.07406223 15.03658523 2.03819065 17.01832981 2 19 C3.27617188 18.97679688 4.55234375 18.95359375 5.8671875 18.9296875 C7.5364525 18.91093171 9.2057238 18.89273131 10.875 18.875 C11.71675781 18.85824219 12.55851562 18.84148437 13.42578125 18.82421875 C14.63427734 18.81455078 14.63427734 18.81455078 15.8671875 18.8046875 C16.61081543 18.79421387 17.35444336 18.78374023 18.12060547 18.77294922 C20 19 20 19 22 21 C22.19852102 23.70922801 22.27839477 26.29303179 22.25 29 C22.26160156 30.10601562 22.26160156 30.10601562 22.2734375 31.234375 C22.2533196 36.7466804 22.2533196 36.7466804 20 39 C16.95641474 39.18841754 14.00444765 39.25163081 10.96044922 39.22705078 C10.02381439 39.22734283 9.08717957 39.22763489 8.12216187 39.22793579 C5.01624389 39.22653885 1.91056374 39.21096049 -1.1953125 39.1953125 C-3.34479644 39.19158367 -5.49428207 39.18873608 -7.64376831 39.18673706 C-13.30898712 39.17909039 -18.97410383 39.15943303 -24.63928223 39.1373291 C-30.41705952 39.11689291 -36.19485326 39.10774011 -41.97265625 39.09765625 C-53.31514909 39.07618812 -64.65756607 39.04203973 -76 39 C-75.03770644 37.87235462 -74.07471216 36.74530718 -73.11141968 35.61851501 C-72.57522696 34.99082686 -72.03903423 34.36313871 -71.48659325 33.71642971 C-69.9788742 31.97560802 -68.42654513 30.31069463 -66.7890625 28.69140625 C-66.00595703 27.91313477 -66.00595703 27.91313477 -65.20703125 27.11914062 C-64.68496094 26.60544922 -64.16289063 26.09175781 -63.625 25.5625 C-63.07972656 25.02173828 -62.53445312 24.48097656 -61.97265625 23.92382812 C-60.65076536 22.61353277 -59.32572382 21.30641716 -58 20 C-54.84795019 21.39347376 -52.73828227 23.02485079 -50.328125 25.4765625 C-49.66425781 26.146875 -49.00039063 26.8171875 -48.31640625 27.5078125 C-47.63449219 28.20648438 -46.95257813 28.90515625 -46.25 29.625 C-45.55261719 30.33140625 -44.85523437 31.0378125 -44.13671875 31.765625 C-42.41987512 33.50598703 -40.70788168 35.25084981 -39 37 C-35.93443143 35.63421085 -33.85041362 34.08841974 -31.50390625 31.69921875 C-30.86259766 31.05146484 -30.22128906 30.40371094 -29.56054688 29.73632812 C-28.90119141 29.06021484 -28.24183594 28.38410156 -27.5625 27.6875 C-26.57926758 26.69073242 -26.57926758 26.69073242 -25.57617188 25.67382812 C-24.29018319 24.36978142 -23.00604594 23.06390602 -21.72387695 21.75610352 C-19.49793068 19.48854487 -17.25033413 17.24334551 -15 15 C-13.74331813 13.74366106 -12.48682426 12.48713405 -11.23046875 11.23046875 C-7.48697917 7.48697917 -3.74348958 3.74348958 0 0 Z " fill="#9E3B31" transform="translate(102,89)"/>
<path d="M0 0 C4.26431656 1.5229702 5.87296281 4.10043181 8 8 C8.86291133 10.9717115 9.48489765 13.95005186 10 17 C10.99 16.01 11.98 15.02 13 14 C14 15 14 15 14.1328125 17.90625 C14.13023438 19.0921875 14.12765625 20.278125 14.125 21.5 C14.12886719 23.27890625 14.12886719 23.27890625 14.1328125 25.09375 C14 28 14 28 13 29 C11.37742456 29.0991657 9.75060169 29.13079777 8.125 29.1328125 C7.14015625 29.13410156 6.1553125 29.13539062 5.140625 29.13671875 C4.10421875 29.13285156 3.0678125 29.12898438 2 29.125 C0.44539063 29.13080078 0.44539063 29.13080078 -1.140625 29.13671875 C-2.12546875 29.13542969 -3.1103125 29.13414063 -4.125 29.1328125 C-5.03507812 29.13168457 -5.94515625 29.13055664 -6.8828125 29.12939453 C-9 29 -9 29 -10 28 C-10.07205511 26.31391034 -10.08386068 24.62499341 -10.0625 22.9375 C-10.05347656 22.01839844 -10.04445312 21.09929687 -10.03515625 20.15234375 C-10.02355469 19.44207031 -10.01195312 18.73179688 -10 18 C-9.01 19.32 -8.02 20.64 -7 22 C-6.81824219 21.35933594 -6.63648438 20.71867187 -6.44921875 20.05859375 C-5.27219215 16.00841504 -4.10514326 12.03983869 -2.375 8.1875 C-1.17169903 5.39802957 -0.45269441 2.98778309 0 0 Z " fill="#F97306" transform="translate(62,59)"/>
<path d="M0 0 C12.54 0 25.08 0 38 0 C31.25 7.875 31.25 7.875 28.7890625 10.30859375 C28.26699219 10.82744141 27.74492188 11.34628906 27.20703125 11.88085938 C26.68496094 12.39455078 26.16289063 12.90824219 25.625 13.4375 C24.80708984 14.24864258 24.80708984 14.24864258 23.97265625 15.07617188 C22.65076536 16.38646723 21.32572382 17.69358284 20 19 C16.75723273 17.576445 14.59906696 15.84528935 12.109375 13.33984375 C11.40039062 12.62892578 10.69140625 11.91800781 9.9609375 11.18554688 C9.23132812 10.44369141 8.50171875 9.70183594 7.75 8.9375 C7.00492188 8.19177734 6.25984375 7.44605469 5.4921875 6.67773438 C0 1.14028159 0 1.14028159 0 0 Z " fill="#833024" transform="translate(45,108)"/>
<path d="M0 0 C12.21 0 24.42 0 37 0 C30.25 7.875 30.25 7.875 27.7890625 10.30859375 C27.26699219 10.82744141 26.74492188 11.34628906 26.20703125 11.88085938 C25.68496094 12.39455078 25.16289062 12.90824219 24.625 13.4375 C23.80708984 14.24864258 23.80708984 14.24864258 22.97265625 15.07617188 C21.65076536 16.38646723 20.32572382 17.69358284 19 19 C16.08653407 17.68692751 14.0549021 16.28818412 11.8359375 13.99609375 C11.27132813 13.42052734 10.70671875 12.84496094 10.125 12.25195312 C9.5475 11.65318359 8.97 11.05441406 8.375 10.4375 C7.21839849 9.24650616 6.05964222 8.05759995 4.8984375 6.87109375 C4.38974121 6.34443115 3.88104492 5.81776855 3.35693359 5.27514648 C2.00599895 3.8835783 2.00599895 3.8835783 0 3 C0 2.01 0 1.02 0 0 Z " fill="#843125" transform="translate(6,108)"/>
<path d="M0 0 C12.21 0 24.42 0 37 0 C35.27370154 3.45259693 34.16774527 5.07238601 31.5234375 7.671875 C30.853125 8.33574219 30.1828125 8.99960938 29.4921875 9.68359375 C28.79351562 10.36550781 28.09484375 11.04742187 27.375 11.75 C26.66859375 12.44738281 25.9621875 13.14476563 25.234375 13.86328125 C23.49401297 15.58012488 21.74915019 17.29211832 20 19 C16.75723273 17.576445 14.59906696 15.84528935 12.109375 13.33984375 C11.40039062 12.62892578 10.69140625 11.91800781 9.9609375 11.18554688 C9.23132813 10.44369141 8.50171875 9.70183594 7.75 8.9375 C7.00492187 8.19177734 6.25984375 7.44605469 5.4921875 6.67773438 C0 1.14028159 0 1.14028159 0 0 Z " fill="#843124" transform="translate(85,108)"/>
<path d="M0 0 C12.21 0 24.42 0 37 0 C30.25 7.875 30.25 7.875 27.7890625 10.30859375 C27.26699219 10.82744141 26.74492188 11.34628906 26.20703125 11.88085938 C25.68496094 12.39455078 25.16289063 12.90824219 24.625 13.4375 C23.80708984 14.24864258 23.80708984 14.24864258 22.97265625 15.07617188 C21.65076536 16.38646723 20.32572382 17.69358284 19 19 C15.8804428 17.61314777 13.74144201 15.99810509 11.328125 13.59375 C10.33232422 12.60181641 10.33232422 12.60181641 9.31640625 11.58984375 C8.63449219 10.90019531 7.95257813 10.21054688 7.25 9.5 C6.55261719 8.81035156 5.85523438 8.12070313 5.13671875 7.41015625 C4.47800781 6.74886719 3.81929687 6.08757812 3.140625 5.40625 C2.53766602 4.80103516 1.93470703 4.19582031 1.31347656 3.57226562 C0 2 0 2 0 0 Z " fill="#843124" transform="translate(26,88)"/>
<path d="M0 0 C11.88 0 23.76 0 36 0 C36 3 36 3 34.53125 4.80932617 C33.52578125 5.79122925 33.52578125 5.79122925 32.5 6.79296875 C31.4171875 7.8612793 31.4171875 7.8612793 30.3125 8.95117188 C29.549375 9.68916016 28.78625 10.42714844 28 11.1875 C27.236875 11.93708984 26.47375 12.68667969 25.6875 13.45898438 C23.79819161 15.31286823 21.90224794 17.15941069 20 19 C16.75723273 17.576445 14.59906696 15.84528935 12.109375 13.33984375 C11.40039062 12.62892578 10.69140625 11.91800781 9.9609375 11.18554688 C9.23132813 10.44369141 8.50171875 9.70183594 7.75 8.9375 C7.00492187 8.19177734 6.25984375 7.44605469 5.4921875 6.67773438 C0 1.14028159 0 1.14028159 0 0 Z " fill="#843124" transform="translate(65,88)"/>
<path d="M0 0 C3.2710303 1.01514734 4.01858135 2.03251736 5.75 5.0625 C7.75754278 10.26683643 7.75232756 15.74301732 6 21 C1.78175588 19.25421409 0.61547929 17.18997673 -1.2421875 13.16015625 C-2.67496405 9.07600454 -2.634243 5.54596731 -1 1.5625 C-0.67 1.046875 -0.34 0.53125 0 0 Z " fill="#F88523" transform="translate(22,61)"/>
<path d="M0 0 C0.66 0 1.32 0 2 0 C4.35930537 3.68641465 4.43072427 6.69275735 4 11 C2.65977916 14.82032022 1.46433021 18.15827734 -2.140625 20.23046875 C-3.06101562 20.61138672 -3.06101562 20.61138672 -4 21 C-5.92785404 15.21643787 -5.73507246 9.95606109 -3.0625 4.5625 C-1.25862069 1.25862069 -1.25862069 1.25862069 0 0 Z " fill="#F88523" transform="translate(104,61)"/>
<path d="M0 0 C0.66 0.33 1.32 0.66 2 1 C2.32420072 5.64687703 1.96807592 8.33937303 -1 12 C-4.1875 13.8125 -4.1875 13.8125 -7 15 C-7.57256004 11.07387404 -7.74950876 9.08011914 -5.44140625 5.75390625 C-3.68344524 3.76956797 -1.89115082 1.85738027 0 0 Z " fill="#F9AA30" transform="translate(48,14)"/>
<path d="M0 0 C3.16115776 1.36983503 3.9927092 1.9890638 6 5 C6.25760279 7.69452521 6.08900053 10.28548375 6 13 C5.01 13.33 4.02 13.66 3 14 C-0.00559652 8.99067246 -0.29341888 5.67276511 0 0 Z " fill="#F8A730" transform="translate(83,24)"/>
<path d="M0 0 C1.65 0.33 3.3 0.66 5 1 C4.67 2.32 4.34 3.64 4 5 C2.35 4.67 0.7 4.34 -1 4 C-0.67 2.68 -0.34 1.36 0 0 Z " fill="#6C2518" transform="translate(102,113)"/>
<path d="M0 0 C1.65 0.33 3.3 0.66 5 1 C4.67 2.32 4.34 3.64 4 5 C2.35 4.67 0.7 4.34 -1 4 C-0.67 2.68 -0.34 1.36 0 0 Z " fill="#6C2518" transform="translate(62,113)"/>
<path d="M0 0 C1.65 0.33 3.3 0.66 5 1 C4.67 2.32 4.34 3.64 4 5 C2.35 4.67 0.7 4.34 -1 4 C-0.67 2.68 -0.34 1.36 0 0 Z " fill="#6C2518" transform="translate(22,113)"/>
<path d="M0 0 C1.65 0.33 3.3 0.66 5 1 C4.67 2.32 4.34 3.64 4 5 C2.35 4.67 0.7 4.34 -1 4 C-0.67 2.68 -0.34 1.36 0 0 Z " fill="#6C2518" transform="translate(82,93)"/>
<path d="M0 0 C1.65 0.33 3.3 0.66 5 1 C4.67 2.32 4.34 3.64 4 5 C2.35 4.67 0.7 4.34 -1 4 C-0.67 2.68 -0.34 1.36 0 0 Z " fill="#6C2518" transform="translate(42,93)"/>
<path d="M0 0 C1.32 0 2.64 0 4 0 C4 1.65 4 3.3 4 5 C2.68 5 1.36 5 0 5 C0 3.35 0 1.7 0 0 Z " fill="#853125" transform="translate(82,118)"/>
<path d="M0 0 C1.32 0 2.64 0 4 0 C4 1.65 4 3.3 4 5 C2.68 5 1.36 5 0 5 C0 3.35 0 1.7 0 0 Z " fill="#853125" transform="translate(42,118)"/>
<path d="M0 0 C1.32 0 2.64 0 4 0 C4 1.65 4 3.3 4 5 C2.68 5 1.36 5 0 5 C0 3.35 0 1.7 0 0 Z " fill="#853125" transform="translate(62,98)"/>
</svg>
